<svg xmlns="http://www.w3.org/2000/svg" width="2432" height="2432" viewBox="0 0 2280 2280"><g transform="translate(771.429 627.924)"><circle cx="368.571" cy="512.076" r="1140" fill="#fff"/><g fill="#0091ff" stroke="#000"><g transform="translate(-6302.258 805.4)"><path stroke-width="136.425" d="M6241.283-661.95h862.5v225h-862.5z"/><path stroke-width="136.425" d="M6372.183-438.7h600.699v675h-600.699z"/><circle r="200.233" cy="2083.029" cx="2948.888" transform="matrix(.75 0 0 .74913 4460.867 -1801.545)" stroke-width="182.006"/><path stroke-width="136.425" d="M6147.049-391.093h225v300h-225zM6971.274-392.85h225v300h-225zM6241.283 234.549h862.5v225h-862.5z"/><path stroke-width="136.425" d="M7194.666-316.093h225v150h-225zM5921.992-317.335h225v150h-225zM6564.534-1014.46c-158.907.16-188.864 352.877-188.864 352.877h601.383s-20.006-354.346-188.99-353.104z"/></g><path stroke-width="136.425" d="M450.633-440.188l.117 225-150 .078-.117-225z"/></g><text style="line-height:125%;-inkscape-font-specification:'Tahoma Bold';text-align:start" x="903.758" y="1324.862" font-weight="700" font-size="164.448" font-family="Tahoma" letter-spacing="0" word-spacing="0"><tspan x="903.758" y="1324.862">TM</tspan></text></g></svg>