<?xml version="1.0" encoding="UTF-8" standalone="no"?>
<!-- Generator: Adobe Illustrator 12.0.0, SVG Export Plug-In . SVG Version: 6.00 Build 51448)  -->

<svg
   xmlns:dc="http://purl.org/dc/elements/1.1/"
   xmlns:cc="http://creativecommons.org/ns#"
   xmlns:rdf="http://www.w3.org/1999/02/22-rdf-syntax-ns#"
   xmlns:svg="http://www.w3.org/2000/svg"
   xmlns="http://www.w3.org/2000/svg"
   xmlns:sodipodi="http://sodipodi.sourceforge.net/DTD/sodipodi-0.dtd"
   xmlns:inkscape="http://www.inkscape.org/namespaces/inkscape"
   version="1.1"
   width="100"
   height="78.21756"
   viewBox="0 0 100 78.21756"
   overflow="visible"
   enable-background="new 0 0 1210.412 945.805"
   xml:space="preserve"
   id="svg2956"
   inkscape:version="0.91 r13725"
   sodipodi:docname="asia.svg"
   style="overflow:visible"><metadata
     id="metadata3050"><rdf:RDF><cc:Work
         rdf:about=""><dc:format>image/svg+xml</dc:format><dc:type
           rdf:resource="http://purl.org/dc/dcmitype/StillImage" /><dc:title></dc:title></cc:Work></rdf:RDF></metadata><defs
     id="defs3048"><inkscape:perspective
       sodipodi:type="inkscape:persp3d"
       inkscape:vp_x="0 : 472.9025 : 1"
       inkscape:vp_y="0 : 999.99999 : 0"
       inkscape:vp_z="1210.412 : 472.9025 : 1"
       inkscape:persp3d-origin="605.20598 : 315.26833 : 1"
       id="perspective3052" /></defs><sodipodi:namedview
     pagecolor="#ffffff"
     bordercolor="#666666"
     borderopacity="1"
     objecttolerance="10"
     gridtolerance="10"
     guidetolerance="10"
     inkscape:pageopacity="0"
     inkscape:pageshadow="2"
     inkscape:window-width="1920"
     inkscape:window-height="1107"
     id="namedview3046"
     showgrid="false"
     inkscape:zoom="2.8230293"
     inkscape:cx="-6.6033962"
     inkscape:cy="91.099218"
     inkscape:window-x="0"
     inkscape:window-y="0"
     inkscape:window-maximized="1"
     inkscape:current-layer="svg2956"
     fit-margin-top="0"
     fit-margin-left="0"
     fit-margin-right="0"
     fit-margin-bottom="0" /><g
     id="Layer_1"
     display="none"
     style="display:none"
     transform="translate(-1.2066526,-867.58744)"><g
       id="Layer_1_1_"
       display="inline"
       style="display:inline" /></g><g
     id="g4174"
     transform="matrix(0.08269771,0,0,0.08269771,-0.09978741,0.00165395)"><path
       id="path2968"
       d="m 977.015,253.752 c 2.714,0 5.428,0 8.142,0 0.02,2.187 1.581,3.018 2.714,4.069 0.752,0.698 -0.22,1.273 1.357,1.357 2.095,0.11 2.236,2.159 2.714,4.071 0.347,1.385 1.033,0.657 1.356,1.355 1.148,2.48 2.475,7.158 5.429,9.499 1.498,1.188 3.519,0.223 5.428,1.357 1.177,0.7 1.61,3.325 2.714,4.07 2.391,1.616 7.309,0.633 6.785,5.429 1.812,0 3.618,0 5.428,0 -1.241,2.876 2.028,1.816 2.716,2.714 0.93,1.215 0.354,3.009 1.356,4.071 1.57,1.666 5.796,2.083 5.426,5.428 0.748,2.782 -2.591,3.235 -2.714,1.355 -2.836,-0.575 -3.594,0.932 -5.428,1.357 -0.133,6.769 4.97,8.657 8.142,12.213 1.354,1.516 2.521,3.877 4.071,5.428 2.509,2.507 4.324,2.37 5.428,6.785 0.511,2.037 2.737,1.49 2.714,5.428 -2.172,-0.38 -4.641,0.503 -6.783,0 -3.03,-0.712 -2.369,-1.304 -5.43,-4.069 -1.476,-1.335 -4.52,-2.762 -5.426,-4.071 -0.63,-0.91 0.479,-3.061 0,-4.071 -0.28,-0.588 -2.517,-0.884 -2.716,-1.355 -0.681,-1.615 -0.485,-4.964 -1.356,-6.785 -0.655,-1.372 -2.1,-0.407 -2.714,-1.357 -1.148,-1.775 1.429,-5.279 -1.355,-5.428 -2.038,-0.107 -0.556,-2.705 -1.356,-4.071 -0.324,-0.553 -2.504,-0.887 -2.715,-1.355 -0.319,-0.709 0.407,-2.063 0,-2.714 -1.059,-1.692 -2.545,-3.371 -4.07,-5.428 -0.354,-0.479 -2.508,-0.923 -2.714,-1.357 -0.451,-0.95 0.64,-3.257 0,-4.071 -1.3,-1.656 -3.868,-3.867 -5.428,-5.428 -3.299,-3.298 -6.853,-6.944 -10.856,-10.855 -1.771,-1.729 -4.238,-2.45 -5.428,-4.069 -0.644,-0.878 0.504,-3.09 0,-4.071 -0.278,-0.543 -4.115,-0.26 -2.714,-2.714 -2.312,0.496 -2.562,-1.061 -2.717,-2.717 z"
       inkscape:connector-curvature="0" /><path
       style="fill:#ffffff"
       id="path2970"
       d="m 223.899,275.464 c 0.584,-3.035 6.688,-0.55 9.499,-1.357 -0.585,3.035 -6.688,0.549 -9.499,1.357 z"
       inkscape:connector-curvature="0" /><path
       id="path2972"
       d="m 1038.077,339.24 c 4.249,-0.724 3.229,3.407 6.785,4.071 2.997,0.558 6.412,3.434 8.144,6.785 3.094,-0.379 5.102,0.327 5.428,2.714 2.852,0.514 5.197,-0.681 8.142,0 0.688,0.159 0.843,2.454 1.357,2.714 1.813,0.917 4.909,-0.806 6.784,0 0.727,0.313 -0.16,2.312 1.355,2.714 2.387,0.637 4.124,0.311 5.43,2.714 -0.059,4.919 -7.199,2.751 -9.5,5.43 0,2.262 0,4.521 0,6.783 -3.147,1.673 -4.173,-2.149 -6.783,-2.714 -2.125,-0.457 -4.709,0.618 -6.785,0 -0.949,-0.28 -2.055,-4.654 -6.785,-2.714 -1.475,0.337 -0.921,2.698 -2.714,2.714 -2.663,1.028 3.682,4.331 1.355,9.499 -3.009,0.755 -1.931,-2.602 -4.069,-2.714 -1.875,-0.098 -2.7,-4.848 -4.07,-6.785 -1.495,-2.111 -5.318,-2.21 -4.071,-5.428 3.646,1.553 1.593,-3.152 2.714,-4.071 0.285,-0.231 3.879,-1.847 4.071,-4.069 0.226,-2.641 -0.467,-3.855 -1.355,-5.43 -1.322,-2.336 -2.438,-4.157 -4.07,-8.142 -0.178,-0.436 -1.079,-0.244 -1.357,-1.357 -0.218,-0.851 0.157,-1.849 -0.01,-2.714 z"
       inkscape:connector-curvature="0" /><path
       id="path2974"
       d="m 1080.144,407.089 c 0.141,4.211 -4.27,3.874 -2.713,9.499 -2.3,3.076 2.344,4.137 2.713,5.428 1.046,3.646 -2.289,1.89 0,5.428 0.488,0.753 1.275,-0.212 1.357,1.357 0.113,2.18 2.82,3.874 2.714,6.785 -0.164,4.373 -1.909,3.566 -2.714,6.782 -0.52,2.074 -0.74,3.455 -2.715,5.431 -2.434,2.433 -2.979,1.285 -8.143,2.714 -0.938,0.26 -2.49,2.688 -2.714,2.714 -0.664,0.078 -3.575,-1.191 -5.428,-1.357 -2.244,-0.196 -4.536,0.152 -6.785,0 -3.134,0.247 -1.835,1.914 -2.714,5.43 -0.37,1.478 -4.387,4.435 -2.714,9.499 -5.209,1.322 -4.13,-5.054 -5.43,-6.785 -2,-2.666 -5.018,-2.487 -5.428,-5.43 -5.53,0.774 -11.767,-1.67 -14.927,1.357 -1.803,1.727 -2.73,0.044 -6.785,1.356 -3.419,1.104 -5.23,2.925 -8.142,2.714 -2.947,-0.214 -3.975,-4.314 -8.144,-2.714 -1.013,-3.531 2.438,-1.743 4.07,-2.716 1.172,-0.693 1.299,-3.521 4.07,-2.714 4.445,-2.34 6.41,-7.16 10.854,-9.499 5.627,-1.554 5.287,2.854 9.499,2.715 3.607,1.169 2.416,-2.556 5.428,-2.715 2.428,-0.127 2.988,-2.229 5.428,-4.068 3.029,-2.286 9.093,-4.112 10.855,-9.499 1.783,-1.383 5.003,-1.33 6.785,-2.714 1.84,-0.299 0.08,-5.289 2.714,-5.43 3.767,-0.195 -1.808,-5.223 4.071,-5.428 1.167,-3.607 -2.559,-2.416 -2.714,-5.428 -0.188,-3.537 -2.558,-2.417 -2.714,-5.43 -0.073,-1.387 -0.063,-2.645 -1.357,-2.714 -1.604,-0.085 -0.693,-1.711 -1.357,-2.714 -1.717,-2.595 -7.189,-10.563 -1.354,-14.927 1.354,0 2.714,0 4.069,0 -1.166,3.607 2.644,1.645 4.07,2.714 2.05,1.535 3.365,6.862 8.143,5.428 -1.752,5.372 4.469,2.771 2.715,8.144 -0.409,1.635 2.22,0.659 2.715,1.355 0.795,1.115 -0.94,5.627 2.722,5.432 z"
       inkscape:connector-curvature="0" /><path
       id="path2976"
       d="m 81.418,442.368 c 0.654,4.274 -4.165,3.072 -2.714,8.145 -5.659,-0.232 -6.695,4.161 -12.213,4.068 -0.578,-2.588 -3.876,-2.453 -2.715,-6.782 1.749,-1.87 5.896,-1.346 9.499,-1.357 3.315,-0.757 2.892,-5.251 8.143,-4.074 z"
       inkscape:connector-curvature="0" /><path
       id="path2978"
       d="m 1034.008,462.725 c 0.807,4.113 -1.129,6.193 -2.715,8.143 -1.209,1.486 -4.457,4.08 -6.783,4.07 -0.787,-3.735 -3.379,-5.669 -4.071,-9.498 4.463,-0.771 8.629,-6.664 13.569,-2.715 z"
       inkscape:connector-curvature="0" /><path
       id="path2980"
       d="m 1000.084,464.08 c 1.355,0 2.714,0 4.069,0 1.476,3.953 5.542,5.313 9.499,6.785 -1.951,4.574 2.728,7.563 2.714,10.855 -0.01,2.859 -0.521,3.56 -1.355,5.428 -0.282,0.631 -1.278,-0.11 -1.356,1.357 -0.083,1.561 -0.058,2.426 -1.355,2.714 -4.207,1.574 -2.16,-4.043 -2.715,-5.429 -1.014,-2.529 -3.638,-3.136 -2.715,-5.43 -2.847,-3.034 -6.013,-5.748 -9.499,-8.142 0.444,-3.166 1.631,-5.603 2.713,-8.138 z"
       inkscape:connector-curvature="0" /><path
       id="path2982"
       d="m 245.611,544.143 c 0.905,0 1.81,0 2.715,0 0,1.811 0,3.619 0,5.428 -0.905,0 -1.81,0 -2.715,0 0,-1.809 0,-3.62 0,-5.428 z"
       inkscape:connector-curvature="0" /><path
       id="path2984"
       d="m 944.447,590.279 c -3.542,0.729 -2.5,-1.98 -5.428,-2.714 -3.63,-0.907 -1.313,-1.111 -2.714,-4.07 -0.279,-0.589 -2.515,-0.884 -2.714,-1.355 -0.805,-1.906 -1.351,-6.266 -1.356,-6.784 -0.007,-0.471 0.568,-4.915 1.356,-6.785 0.275,-0.656 2.462,-0.827 2.714,-1.355 0.461,-0.979 -0.638,-3.221 0,-4.07 0.338,-0.452 2.306,0.408 2.714,0 0.423,-0.423 -0.457,-2.345 0,-2.714 1.376,-1.11 4.23,-0.122 4.071,-2.714 2.189,-0.382 2.336,1.28 4.068,1.354 1.334,1.875 -1.361,3.909 -1.354,4.071 0.127,3.045 2.663,2.563 2.714,5.428 0.053,2.999 -1.053,3.395 -1.357,5.428 -0.262,1.747 0.38,3.705 0,5.43 -0.807,3.649 -4.187,6.583 -2.714,10.85 z"
       inkscape:connector-curvature="0" /><path
       id="path2986"
       d="m 848.104,617.419 c 0.444,1.632 -2.265,0.663 -2.714,1.355 -0.625,0.963 0.583,3.078 0,4.07 -0.324,0.553 -2.502,0.888 -2.715,1.355 -0.312,0.691 0.418,2.094 0,2.714 -1.697,2.527 -3.962,5.399 -6.784,6.785 -7.354,-1.859 -12.03,-10.085 -5.428,-14.927 0.864,-0.637 3.086,0.466 4.068,0 0.397,-0.188 1.11,-2.654 1.357,-2.714 3.901,-0.948 9.164,-0.091 12.216,1.362 z"
       inkscape:connector-curvature="0" /><path
       id="path2988"
       d="m 951.232,630.988 c 0.905,0 1.809,0 2.714,0 4.181,-1.015 1.654,4.678 6.785,2.715 -1.752,5.37 4.466,2.771 2.714,8.144 2.756,1.767 3.241,5.806 5.428,8.142 1.499,2.772 -2.361,1.956 -2.714,2.714 -0.835,1.804 1.827,6.75 -2.714,5.43 0.881,4.951 -0.915,7.228 -2.714,9.499 3.955,5.091 8.478,9.613 13.569,13.567 4.177,1.012 2.606,-3.725 6.785,-2.714 4.412,1.71 9.867,4.554 9.496,12.213 -1.953,1.52 -3.312,1.463 -4.068,-1.355 -4.27,1.555 -3.297,-2.131 -5.428,-2.714 -4.953,-0.883 -7.229,0.914 -9.5,2.714 -3.83,-0.692 -5.764,-3.282 -9.498,-4.07 -2.06,-6.988 -6.582,-11.511 -13.569,-13.57 1.753,-5.37 -4.468,-2.771 -2.714,-8.142 -0.883,-1.381 -3.121,-1.403 -2.715,-4.07 0.539,-0.745 -0.675,-3.479 0,-4.069 0.298,-0.262 2.588,0.32 2.715,0 0.732,-1.871 -1.758,-6.701 2.714,-5.43 0.418,-6.826 -1.567,-16.046 2.714,-19.004 z"
       inkscape:connector-curvature="0" /><path
       id="path2990"
       d="m 955.304,689.338 c 1.354,0 2.714,0 4.07,0 0.921,3.148 3.466,4.677 5.428,6.783 1.842,0.422 1.125,3.397 1.355,5.43 -4.271,0.654 -3.07,-4.165 -8.142,-2.714 1.343,-5.413 -4.052,-4.085 -2.711,-9.499 z"
       inkscape:connector-curvature="0" /><path
       id="path2992"
       d="m 982.442,698.837 c 1.81,0 3.619,0 5.428,0 0,0.903 0,1.809 0,2.714 -1.809,0 -3.618,0 -5.428,0 0,-0.905 0,-1.811 0,-2.714 z"
       inkscape:connector-curvature="0" /><path
       id="path2994"
       d="m 994.655,698.837 c 3.756,-0.506 6.564,0.813 9.499,2.714 0.753,0.484 -0.211,1.271 1.356,1.355 1.829,0.096 0.834,2.614 1.355,4.07 0.701,1.952 3.505,2.209 5.43,4.071 -0.151,3.467 -4.544,2.69 -8.144,2.714 1.221,-2.88 -2,-1.814 -2.714,-2.714 -0.934,-1.179 -0.378,-3.021 -1.356,-4.071 -0.506,-0.54 -2.324,-0.792 -2.715,-1.356 -0.408,-0.597 0.269,-2.025 0,-2.714 -0.58,-1.498 -3.345,-1.312 -2.711,-4.069 z"
       inkscape:connector-curvature="0" /><path
       id="path2996"
       d="m 970.229,705.62 c 3.91,0.163 8.883,-0.74 10.856,1.356 -0.037,1.32 -1.662,1.054 -2.716,1.357 1.343,5.41 -4.056,4.085 -2.714,9.496 -1.635,0.514 -4.167,-1.56 -5.429,-2.714 0.036,0.032 -2.789,-3.208 -2.714,-2.714 -0.334,-2.206 4.88,-3.451 2.717,-6.781 z"
       inkscape:connector-curvature="0" /><path
       id="path2998"
       d="m 947.16,712.406 c 5.451,1.43 -0.179,5.517 1.357,10.856 -3.152,0.918 -3.633,4.509 -6.785,5.428 1.104,3.824 -1.419,3.693 -2.714,5.428 -1.025,1.374 -1.978,2.443 -2.714,4.07 -4.283,-0.663 -4.792,2.445 -9.499,1.357 -1.726,-4.915 4.681,-6.493 6.785,-9.499 0.622,-0.891 -0.666,-3.221 0,-4.07 2.931,-3.744 10.488,-7.891 13.57,-13.57 z"
       inkscape:connector-curvature="0" /><path
       id="path3000"
       d="m 991.941,712.406 c 1.356,0 2.714,0 4.071,0 2.063,1.226 0.517,4.996 1.354,6.785 0.627,1.337 2.477,1.025 2.714,2.714 0.384,2.192 -1.28,2.336 -1.354,4.071 -4.497,-0.303 -2.84,-4.979 -4.071,-8.145 -0.782,-2.008 -3.487,-3.11 -2.714,-5.425 z"
       inkscape:connector-curvature="0" /><path
       id="path3002"
       d="m 979.729,720.549 c 4.806,-0.734 3.337,4.805 8.142,4.068 1.166,3.607 -2.556,2.417 -2.714,5.43 -0.079,1.513 -1.357,5.933 -5.428,5.428 1.159,-4.325 -1.182,-5.15 -2.714,-6.784 -0.657,-4.278 4.165,-3.076 2.714,-8.142 z"
       inkscape:connector-curvature="0" /><path
       id="path3004"
       d="m 1009.582,724.617 c 5.387,1.813 1.096,6.889 4.07,10.855 0.416,0.555 2.418,0.831 2.714,1.355 0.584,1.037 -0.512,2.991 0,4.071 0.234,0.495 2.591,0.988 2.714,1.356 0.881,2.643 -0.646,5.19 0,8.142 0.801,1.287 2.092,1.164 2.715,2.714 0.735,1.836 -0.556,5.694 0,8.145 -4.807,0.731 -3.336,-4.809 -8.143,-4.071 -1.955,0.761 -3.313,2.117 -4.071,4.071 -0.521,4.591 6.009,2.135 4.071,8.142 -6.009,-1.484 -6.748,2.299 -10.855,2.714 0.041,-2.784 -3.905,-2.297 -4.069,-5.428 -0.021,-0.36 0.132,-1.026 0,-1.357 -0.233,-0.581 -1.376,-1.438 -1.357,-1.354 -0.355,-1.547 0.673,-4.008 0,-5.429 -0.655,-1.387 -2.095,-0.399 -2.714,-1.356 -1.313,-2.031 0.334,-6.282 -4.07,-6.785 -5.426,-0.449 -7.531,2.419 -13.568,1.357 -0.755,-3.009 2.602,-1.933 2.714,-4.071 0.104,-1.993 1.322,-3.282 2.714,-5.428 5.457,-0.937 7.746,1.3 12.213,1.355 2.777,0.828 2.911,-2.023 4.071,-2.714 1.242,-0.739 3.915,-0.36 5.428,-1.355 0.711,-0.47 0.131,-3.972 2.714,-2.714 0.742,-4.226 1.103,-8.843 2.709,-12.215 z"
       inkscape:connector-curvature="0" /><path
       id="path3006"
       d="m 555,730.047 c 2.19,-0.384 2.336,1.281 4.069,1.355 1.453,4.879 3.988,8.677 8.145,10.855 -1.012,5.53 4.373,4.673 2.713,10.854 0.336,1.476 2.698,0.92 2.714,2.714 0.655,4.275 -4.165,3.073 -2.714,8.145 -6.729,-1.754 -6.667,3.283 -12.213,2.714 -0.611,-1.748 -2.214,-2.184 -2.714,-4.071 -0.334,-1.265 1.354,-8.391 0,-9.499 -1.084,-0.888 -2.454,-0.979 -2.715,-2.714 -0.468,-3.106 -0.58,-8.037 0,-10.854 0.454,-2.208 0.396,-1.435 1.357,-2.716 0.575,-0.768 1.271,0.229 1.355,-1.355 0.097,-1.805 -0.07,-3.623 0.003,-5.428 z"
       inkscape:connector-curvature="0" /><path
       id="path3008"
       d="m 483.079,770.756 c 0,1.809 0,3.619 0,5.428 -5.225,1.069 -5.225,-6.496 0,-5.428 z"
       inkscape:connector-curvature="0" /><path
       id="path3010"
       d="m 709.692,773.47 c 0.905,0 1.812,0 2.716,0 3.145,-1.46 4.188,1.91 6.784,2.714 3.293,1.02 7.026,0.117 9.498,1.355 0.894,0.448 -0.313,2.271 1.356,2.716 4.881,1.303 6.646,5.281 12.214,8.142 2.157,1.108 3.757,3.761 6.782,5.428 -1.121,3.835 1.912,3.518 1.356,6.785 2.104,1.612 3.299,3.969 5.429,5.428 0.892,0.609 1.958,1.896 4.069,1.357 2.777,6.722 12.152,6.847 14.928,13.568 5.412,-1.344 4.086,4.058 9.499,2.715 -2.086,2.965 1.939,3.854 2.714,5.428 0.538,1.095 -0.521,2.966 0,4.071 0.104,0.223 2.716,1.35 2.716,1.354 0.121,1.74 -2.848,2.167 -2.716,4.071 2.007,3.423 5.247,5.606 9.498,6.784 -0.499,2.309 1.062,2.561 2.718,2.715 1.936,8.918 6.338,15.37 14.925,17.64 0.267,2.22 -0.352,4.579 0,6.785 0.518,3.255 2.814,4.124 2.714,6.785 -0.167,4.37 -1.909,3.567 -2.714,6.784 -0.787,3.147 -3.209,6.906 -8.145,8.143 -2.035,0.509 -1.486,2.737 -5.427,2.714 1.552,-3.646 -3.152,-1.591 -4.071,-2.714 -0.855,-1.049 -3.094,-0.846 -5.429,-2.714 0.092,0.072 -2.804,-3.211 -2.712,-2.714 -0.144,-0.77 1.938,-1.781 1.354,-2.715 -1.313,-2.101 -6.758,-5.427 -9.5,-8.144 -1.101,-1.092 -2.827,-2.832 -4.067,-4.068 -1.46,-1.464 -3.78,-3.646 -4.073,-4.071 -0.628,-0.917 0.483,-3.057 0,-4.071 -0.334,-0.708 -2.374,-0.763 -2.712,-1.354 -1.06,-1.854 0.874,-4.904 -2.712,-4.071 -0.659,-4.284 2.096,-3.542 0,-6.784 -0.489,-0.753 -1.277,0.212 -1.358,-1.356 -0.188,-3.534 -2.557,-2.416 -2.715,-5.429 -0.108,-2.087 -1.537,-3.144 -2.715,-4.069 -0.664,-0.523 -1.157,-1.69 -2.712,-1.356 0.574,-2.836 -0.93,-3.594 -1.357,-5.428 -1.349,-1.364 -2.651,-2.777 -4.069,-4.071 -1.191,-1.088 -1.544,-2.964 -4.072,-2.714 0.205,-2.616 -0.438,-3.884 -1.354,-5.428 -0.325,-0.547 -2.506,-0.891 -2.715,-1.357 -0.328,-0.726 0.392,-2.022 0,-2.714 -0.852,-1.501 -1.729,-2.601 -2.715,-4.069 -0.368,-0.551 0.459,-2.257 0,-2.715 -0.32,-0.32 -2.53,0.381 -2.714,0 -0.492,-1.017 0.63,-3.145 0,-4.07 -0.604,-0.894 -1.922,-1.965 -2.712,-2.714 -5.414,-5.128 -9.918,-10.544 -16.284,-16.282 -0.852,-0.77 -1.853,-2.036 -2.716,-2.715 -0.663,-0.522 -1.159,-1.689 -2.713,-1.356 2.149,-3.758 -3.188,-4.418 -2.714,-6.785 0.044,-0.227 1.913,-0.07 1.356,-1.355 -0.478,-1.116 -3.685,-1.355 -2.713,-4.079 z"
       inkscape:connector-curvature="0" /><path
       id="path3012"
       d="m 473.58,777.541 c 1.102,0.257 1.354,1.36 2.716,1.354 -0.26,1.102 -1.361,1.354 -1.357,2.714 -1.099,-0.257 -1.353,-1.359 -2.714,-1.354 0.256,-1.1 1.361,-1.352 1.355,-2.714 z"
       inkscape:connector-curvature="0" /><path
       id="path3014"
       d="m 480.365,777.541 c 1.101,0.257 1.354,1.36 2.714,1.354 -0.257,1.102 -1.36,1.354 -1.355,2.714 -1.099,-0.257 -1.354,-1.359 -2.714,-1.354 0.257,-1.1 1.359,-1.352 1.355,-2.714 z"
       inkscape:connector-curvature="0" /><path
       id="path3016"
       d="m 472.224,782.969 c 0.905,0 1.809,0 2.714,0 0,0.903 0,1.809 0,2.714 -0.905,0 -1.809,0 -2.714,0 0,-0.906 0,-1.811 0,-2.714 z"
       inkscape:connector-curvature="0" /><path
       id="path3018"
       d="m 477.652,785.683 c 1.811,0 3.618,0 5.428,0 0,0.904 0,1.809 0,2.714 -1.81,0 -3.617,0 -5.428,0 0,-0.907 0,-1.81 0,-2.714 z"
       inkscape:connector-curvature="0" /><path
       id="path3020"
       d="m 1046.22,807.395 c -2.144,3.286 -4.855,6.001 -8.144,8.142 -1.313,2.272 2.091,2.915 2.716,5.43 0.287,1.163 -0.494,2.987 0,4.069 0.613,1.348 2.481,1.021 2.714,2.716 -0.539,0.742 0.673,3.479 0,4.068 -0.354,0.313 -2.513,-0.386 -2.714,0 -1.047,1.981 0.296,4.24 -1.356,5.429 -4.387,-1.041 -7.103,-3.755 -8.143,-8.143 1.959,-1.659 2.06,-5.179 4.069,-6.785 0.747,-3.009 -2.592,-1.932 -2.714,-4.069 1.229,-4.197 3.382,-7.475 5.428,-10.854 2.717,-0.003 5.431,-0.003 8.144,-0.003 z"
       inkscape:connector-curvature="0" /><path
       id="path3022"
       d="m 793.823,814.179 c 0.905,0 1.811,0 2.714,0 0,0.905 0,1.81 0,2.714 -0.903,0 -1.809,0 -2.714,0 0,-0.905 0,-1.809 0,-2.714 z"
       inkscape:connector-curvature="0" /><path
       id="path3024"
       d="m 1009.582,816.893 c 1.496,2.771 -2.362,1.956 -2.715,2.714 -0.686,1.479 0.728,3.974 0,5.429 -0.44,0.89 -2.271,-0.307 -2.714,1.356 -0.672,2.521 -0.235,2.094 -2.714,2.714 -2.532,0.634 -5.595,5.326 -9.499,5.428 1.048,-3.554 -2.486,-1.715 -4.071,-2.714 -1.144,-0.72 -1.168,-1.979 -2.714,-2.714 -1.61,-0.769 -2.633,-0.74 -4.069,-1.354 -1.547,-0.663 -3.002,-2.304 -6.784,-1.357 0.052,-0.014 -3.978,1.24 -4.071,1.357 -1.542,1.884 -3.224,-0.005 -5.428,1.354 -0.6,0.37 -2.357,2.168 -2.714,2.714 -0.498,0.766 -1.005,-0.05 -1.356,1.357 -0.614,2.454 0.536,4.448 -2.714,4.068 1.319,5.467 5.929,7.644 9.498,10.856 2.322,0.783 3.41,-1.943 5.429,-2.715 1.187,-0.451 2.887,0.454 4.07,0 4.299,-1.645 9.614,-4.835 13.569,-1.356 0.165,3.548 -3.641,1.834 -5.43,2.714 -1.021,0.505 -1.039,4.114 -5.428,2.714 -1.218,2.854 -2.108,6.033 -4.07,8.144 -0.075,2.579 1.705,2.501 2.716,4.071 1.037,1.614 0.178,4.048 2.714,4.068 -0.115,1.927 -0.227,3.845 1.354,4.071 0,4.975 0,9.951 0,14.927 -2.768,0.875 -2.925,-2.085 -4.068,-2.714 -1.645,-0.901 -3.909,-0.24 -5.43,-1.356 -0.776,-0.572 -0.08,-3.89 -2.715,-2.715 0.289,-3.083 0.148,-5.815 -1.355,-8.142 -0.486,-0.753 -1.273,0.212 -1.356,-1.356 -0.115,-2.185 -1.185,-3.057 -2.714,-5.429 -3.034,2.846 -5.748,6.012 -8.144,9.499 -0.562,4.31 4.03,2.88 2.716,8.143 -0.104,0.411 -1.31,1.938 -1.356,1.356 0.193,2.253 4.54,3.714 2.714,9.499 -2.935,1.137 -4.629,3.513 -9.499,2.714 -0.601,-1.209 -1.19,-2.428 -2.714,-2.714 -1.485,-6.008 2.299,-6.748 2.714,-10.855 0.5,-2.31 -1.058,-2.561 -2.714,-2.715 0.5,-2.307 -1.059,-2.559 -2.714,-2.714 0.379,-3.093 -0.327,-5.101 -2.714,-5.428 0.577,-2.588 3.876,-2.455 2.714,-6.785 4.392,1.679 1.036,-4.39 5.428,-2.714 0.313,-2.403 -1.367,-6.795 2.714,-5.428 -1.14,-5.536 1.52,-9.158 0,-14.928 -0.09,-0.345 -1.292,-0.115 -1.354,-1.355 -0.104,-1.912 4.746,-3.916 2.714,-9.499 2.883,1.073 1.809,-1.81 2.714,-2.714 0.451,-0.452 2.262,0.452 2.714,0 0.438,-0.438 -0.459,-2.307 0,-2.714 1,-0.892 3.046,-0.572 4.07,-1.357 0.963,-0.735 0.915,-2.789 2.714,-2.714 4.624,1.535 11.51,0.344 16.284,1.356 3.09,0.656 4.111,2.716 6.783,2.715 3.3,2.022 3.862,-2.006 5.43,-2.715 2.584,-1.17 7.287,0.13 8.142,-4.07 1.805,0.003 3.614,0.003 5.423,0.003 z"
       inkscape:connector-curvature="0" /><path
       id="path3026"
       d="m 1059.791,868.456 c 1.614,3.993 -3.459,2.212 -5.43,2.716 -5.184,1.32 -11.279,1.564 -16.284,-1.357 0,-1.354 0,-2.714 0,-4.071 3.314,-2.637 11.714,-1.664 13.569,1.357 2.386,0.78 7.973,-1.64 8.145,1.355 z"
       inkscape:connector-curvature="0" /><path
       id="path3028"
       d="m 907.81,922.736 c 0.32,7.521 -10.291,5.884 -13.569,2.714 -10.108,-1.834 -19.991,0.287 -28.497,-1.355 -2.785,-0.539 -3.254,-1.521 -5.428,-2.714 -0.496,-0.272 -2.373,0.416 -2.714,0 -0.208,-0.255 -1.152,-2.63 -1.356,-2.716 -1.938,-0.799 -4.783,0.652 -6.785,0 -1.025,-0.334 -1.405,-3.798 -4.068,-2.714 -5.414,-1.342 -4.087,4.059 -9.499,2.714 -3.304,1.842 -5.366,-1.896 -8.144,-2.714 -3.663,-1.077 -7.813,-0.308 -10.854,-1.354 -0.653,-0.229 -1.65,-2.185 -2.714,-2.714 -1.603,-0.803 -2.789,-0.377 -4.07,-1.357 -0.958,-0.995 2.908,-6.651 5.428,-6.785 1.39,-0.07 2.646,-0.061 2.715,-1.354 0.075,-1.467 12.862,-3.701 12.214,1.354 3.167,0 6.333,0 9.497,0 -0.364,3.703 3.572,1.474 5.43,2.714 0.438,0.295 -0.414,2.376 0,2.717 1.125,0.921 3.152,0.281 4.07,1.354 4.311,-1.188 8.729,-0.241 13.567,-1.354 3.492,-0.807 5.151,-3.056 8.144,-2.717 3.591,0.407 2.278,1.929 5.429,2.717 2.884,0.721 6.171,3.005 8.142,6.782 2.715,0 5.429,0 8.144,0 1.615,3.526 6.916,3.604 10.854,5.43 0.534,0.248 0.158,1.058 1.357,1.355 0.843,0.209 1.844,-0.166 2.707,-0.003 z"
       inkscape:connector-curvature="0" /><path
       id="path3030"
       d="m 981.086,928.162 c -0.188,3.884 -5.659,2.482 -9.498,2.716 -4.108,0.416 -4.851,4.196 -10.855,2.714 -0.006,-2.334 -1.596,-2.824 -2.714,-4.071 -1.079,-1.203 -2.972,-1.535 -2.714,-4.07 4.025,-1.24 7.977,-5.24 12.212,0 3.831,0.559 5.383,-0.803 8.143,0 -0.82,-0.239 1.476,5.238 5.426,2.711 z"
       inkscape:connector-curvature="0" /><path
       id="path3032"
       d="m 941.733,930.878 c -2.218,0.267 -4.579,-0.354 -6.784,0 -3.389,0.538 -4.151,2.831 -6.785,2.714 -2.896,-0.13 -3.89,-3.234 -8.142,-2.714 -0.647,-8.133 22.361,-8.133 21.711,0 z"
       inkscape:connector-curvature="0" /><path
       id="path3034"
       d="m 994.655,945.805 c -2.261,0 -4.522,0 -6.784,0 -4.203,-4.882 6.618,-3.43 4.07,-10.855 4.714,0.476 5.152,-6.898 9.499,-2.714 -2.142,-6.213 5.633,-2.509 5.428,-6.785 4.134,0.594 9.009,-0.81 12.214,0 0.262,0.066 -0.267,2.602 0,2.714 1.159,0.507 9.089,-1.449 6.783,2.716 -3.167,0 -6.33,0 -9.498,0 -1.771,2.75 -7.185,1.861 -8.143,5.428 -3.702,0.987 -2.73,-2.696 -5.428,-2.714 -0.754,-0.004 -1.54,1.099 0,1.355 0,1.356 0,2.715 0,4.07 -2.528,1.607 -4.104,1.047 -5.429,2.714 -1.087,1.37 -2.727,1.643 -2.712,4.071 z"
       inkscape:connector-curvature="0" /><path
       id="path3036"
       d="m 958.018,945.805 c -0.453,0 -0.905,0 -1.357,0 -0.549,-1.842 -1.76,-2.592 -4.068,-2.714 -1.511,-0.08 -0.675,-1.014 -1.357,-1.357 -1.749,-0.885 -6.478,-0.852 -5.428,-4.07 6.238,-0.896 8.887,1.039 10.854,2.716 2.484,2.111 3.317,3.574 1.356,5.425 z"
       inkscape:connector-curvature="0" /><path
       id="path3038"
       d="m 1210.412,138.41 c -4.324,-1.159 -5.148,1.182 -6.783,2.714 -3.029,-1.58 -8.69,2.165 -10.854,0 -0.33,-0.329 0.387,-2.521 0,-2.714 -1.663,-0.838 -5.644,-0.689 -8.144,-1.356 -0.354,-0.094 -0.108,-1.291 -1.356,-1.357 -1.805,-0.095 -3.623,0.073 -5.428,0 -0.761,-1.953 -2.115,-3.312 -4.071,-4.069 -2.32,-0.062 -3.516,1.008 -4.07,2.714 -1.857,-2.665 -8.182,-0.864 -8.143,-5.428 -2.196,-0.326 -4.608,0.431 -6.784,0 -3.972,-0.786 -6.697,-5.077 -10.854,-1.357 -3.618,4.607 5.909,5.14 5.428,10.855 -4.952,0.881 -7.229,-0.914 -9.499,-2.716 -4.952,-0.881 -7.229,0.915 -9.499,2.716 0.021,4.773 6.59,3.196 9.499,4.069 0.242,0.071 -0.241,2.646 0,2.714 2.099,0.584 4.646,-0.441 6.785,0 0.228,3.051 4.251,2.456 6.784,4.071 0.373,0.237 1.364,1.361 1.355,1.357 3.245,1.382 8.267,0.207 9.499,4.069 4.748,-1.397 6.504,1.333 9.498,2.716 1.219,0.561 2.703,-0.326 2.714,1.354 1.777,5.85 -6.461,1.682 -5.428,6.785 -3.479,-3.309 -6.578,-3.053 -10.854,-2.714 -3.522,0.277 -6.683,4.619 -12.213,4.069 -2.466,1.592 -1.546,4.366 -2.715,6.785 -0.633,1.313 -4.688,2.188 -2.714,5.43 -2.515,-0.132 -4.017,0.342 -5.428,1.355 -0.59,0.424 -2.193,4 -2.714,4.071 -1.642,0.22 -1.862,-2.255 -2.714,-2.714 -0.664,-0.358 -1.973,0.185 -2.714,0 -1.947,-0.486 -4.308,-3.541 -8.145,-4.071 -2.891,0.504 -5.646,1.495 -8.142,2.714 -0.575,0.281 -0.122,1.048 -1.356,1.357 -2.17,0.542 -3.629,0.552 -4.07,2.714 -2.188,0.348 -4.621,-0.461 -6.783,0 -1.584,0.338 -1.768,2.339 -2.715,2.714 -1.522,0.602 -3.972,-0.725 -5.43,0 -2.644,1.313 -4.213,3.146 -5.426,5.428 -0.41,1.635 2.218,0.659 2.712,1.357 0.786,1.108 -0.947,5.625 2.714,5.428 1.219,2.854 2.108,6.032 4.071,8.142 2.262,0 4.522,0 6.785,0 -0.675,3.601 4.024,1.646 5.428,2.716 0.771,0.587 0.604,3.353 1.356,4.069 2.656,2.528 6.371,1.287 8.143,4.071 0.368,1.706 -0.479,3.754 0,5.428 0.592,2.071 4.665,2.041 2.713,6.785 -10e-4,2.397 2.857,2.377 4.071,4.071 0.649,0.905 -0.605,3.131 0,4.071 0.364,0.563 3.385,-0.329 2.714,1.355 0.498,4.117 -4.421,2.817 -6.785,4.071 0.786,6.864 5.745,9.021 2.715,16.283 -0.054,5.933 4.938,6.82 4.07,13.568 -3.771,-1.121 -4.979,2.84 -8.143,2.714 -4.188,-0.166 -9.141,-5.438 -9.498,-10.854 -4.334,-1.583 -5.927,-5.213 -9.498,-8.144 -0.769,-0.627 0.228,-1.271 -1.357,-1.355 -4.758,-0.25 -5.048,-4.648 -9.499,-6.785 -1.604,-0.771 -2.827,-0.346 -4.07,-1.356 -1.008,-0.819 -2.681,-2.682 -4.069,-4.07 -1.443,-1.443 -3.158,-3.007 -4.07,-4.071 -1,-1.165 -0.441,-2.627 -1.357,-4.071 -1.207,-1.901 -2.509,-3.863 -4.069,-5.428 -2.475,-2.473 -4.307,-2.299 -5.429,-6.785 -0.666,-2.663 -2.988,-1.137 -4.069,-2.714 -1.068,-1.556 1.129,-5.436 -2.714,-5.428 1.888,-4.896 3.883,-9.688 6.784,-13.569 0,-3.619 0,-7.235 0,-10.854 -1.362,-2.846 2.185,-1.86 2.714,-2.714 0.37,-0.6 -0.176,-2.019 0,-2.716 0.358,-1.438 3.523,-4.604 4.069,-8.142 -0.636,-0.947 -0.888,-1.541 -1.355,-2.714 -0.193,-0.483 0.374,-2.408 0,-2.714 -1.086,-0.891 -2.611,0.578 -2.714,-1.357 -0.119,-2.266 -0.515,-1.52 -1.356,-2.714 -2.083,-2.948 -4.547,-5.362 -6.785,-8.142 -2.131,0.583 -1.159,4.268 -5.428,2.714 -0.479,1.781 -2.39,2.135 -2.714,4.069 -0.747,3.011 2.592,1.934 2.714,4.071 -0.092,3.979 -3.104,5.04 -5.428,6.785 -3.833,1.866 -5.364,-3.087 -6.785,-4.071 -1.69,-1.17 -6.125,-0.437 -5.428,-4.069 -2.263,0 -4.524,0 -6.785,0 -4.021,-0.956 -5.907,-4.043 -12.212,-2.716 -1.024,1.045 -5.582,2.807 -5.43,5.43 0.022,0.374 1.709,1.296 1.356,2.714 -0.077,0.313 -1.292,0.142 -1.356,1.355 -0.072,1.416 -2.927,7.4 -1.355,12.215 0.335,1.025 3.797,1.405 2.714,4.069 -1.574,1.14 -3.639,1.791 -6.785,1.357 -1.379,0.676 -1.043,2.254 -2.714,2.714 -1.327,0.367 -4.058,0.203 -5.428,0 -3.077,-0.455 -2.317,-1.672 -4.07,-2.714 -1.811,-1.076 -4.938,0.885 -4.07,-2.714 -5.782,2.389 -7.416,-4.252 -13.568,-2.714 -1.797,0.447 -2.148,2.299 -4.071,2.714 -2.104,0.455 -4.737,-0.653 -6.785,0 -1.435,0.458 -0.95,2.604 -2.714,2.714 -3.563,-0.371 -7.307,0.494 -10.854,0 -2.642,-0.367 -3.541,-2.242 -5.43,-2.714 -4.362,-1.093 -11.721,-0.128 -14.927,1.355 -0.534,0.248 -0.157,1.06 -1.355,1.357 -0.729,0.183 -2.068,-0.363 -2.716,0 -4.607,2.595 -6.439,8.176 -12.211,9.499 -0.354,1.71 0.465,3.748 0,5.428 -0.272,0.984 -2.676,2.428 -2.715,2.714 -0.438,3.15 3.104,4.903 0,8.144 -1.624,1.692 0.34,3.173 -1.356,6.783 -0.3,0.639 -2.466,0.833 -2.714,1.357 -0.492,1.042 0.615,3.107 0,4.071 -1.049,1.639 -4.305,1.792 -4.07,4.069 -1.416,3.729 4.078,1.064 5.429,2.715 0.146,0.179 -0.188,1.253 0,1.356 0.635,0.354 5.344,1.124 5.429,2.714 0.197,3.769 5.223,-1.807 5.429,4.071 5.148,-1.317 9.753,1.723 13.567,1.355 4.321,-0.414 6.712,-2.937 10.855,-4.069 4.063,-1.245 4.029,2.022 6.784,2.714 2.006,0.501 4.694,1.771 6.784,4.071 0.408,0.447 -0.459,2.337 0,2.714 0.838,0.684 3.009,-0.425 2.716,1.355 -0.063,2.03 2.84,0.571 4.068,1.357 2.657,1.696 3.493,7.143 8.145,6.785 0,1.811 0,3.619 0,5.428 3.646,-1.553 1.591,3.152 2.714,4.071 0.418,0.343 4.002,1.4 2.714,5.428 2.938,2.94 7.396,4.364 10.854,6.785 2.03,0.808 0.077,2.947 0,2.714 0.995,2.987 4.054,2.944 2.713,10.854 0.337,1.476 2.698,0.921 2.716,2.714 1.674,8.458 -4.39,9.184 -2.716,17.643 -0.745,3.008 2.593,1.932 2.716,4.07 -0.425,2.148 0.56,4.672 0,6.784 -0.474,1.781 -2.201,2.188 -2.716,4.071 -0.563,2.067 -0.948,4.781 -1.355,6.785 0.047,-0.229 -2.281,0.616 -1.355,1.356 0.822,0.656 1.45,1.163 1.355,2.716 -4.114,-0.043 -1.313,6.824 -5.428,6.782 0,2.263 0,4.524 0,6.785 -2.885,-1.072 -1.811,1.811 -2.714,2.714 -0.905,0.905 -3.637,-0.017 -2.716,2.715 -7.328,2.522 -14.479,-0.063 -20.354,-2.715 -2.369,1.249 -2.995,4.242 -2.714,8.144 -4.918,0.962 -4.236,7.522 -8.144,9.499 -0.259,5.688 6.66,4.192 5.43,10.854 -2.896,-0.633 -2.584,1.939 -2.715,4.071 -4.911,0.966 -7.026,4.733 -12.214,5.428 0.476,5.858 3.643,9.024 9.499,9.499 1.1,0.99 1.573,3.184 2.715,4.071 1.754,1.366 4.192,2.46 6.784,4.071 0.736,0.457 -0.023,1.011 1.356,1.355 3.163,0.79 4.849,2.977 8.142,5.429 1.232,0.918 0.892,2.104 2.716,2.715 -0.687,-0.229 0.761,-1.478 1.355,-1.357 -0.019,-0.004 0.354,2.167 1.357,1.357 -2.012,3.274 1.933,3.704 2.714,5.428 0.932,2.058 0.721,3.814 1.354,5.428 1.027,2.604 4.361,5.526 2.715,10.856 -3.455,-0.893 -5.006,1.787 -6.783,2.714 -2.162,1.125 -3.763,1.069 -5.431,2.714 -0.099,-2.775 -3.116,0.81 -4.068,1.355 -0.497,0.284 -2.369,-0.422 -2.716,0 -0.932,1.14 0.037,3.456 -2.714,2.715 1.671,-4.031 -2.57,-4.069 -2.714,-6.784 -0.119,-2.25 -0.838,-1.524 -1.355,-2.714 -1.866,-4.272 -1.779,-8.675 -4.07,-12.214 -0.487,-0.753 -1.275,0.212 -1.355,-1.356 -0.291,-5.537 -8.547,-8.259 -10.855,-13.57 -6.384,-1.305 -14.651,-0.728 -16.284,-6.784 -0.747,-3.009 2.591,-1.933 2.714,-4.07 0.003,-3.254 -3.521,-6.05 -6.783,-8.144 -0.494,-0.315 -2.356,0.437 -2.714,0 -0.254,-0.309 -1.077,-2.577 -1.356,-2.714 -1.104,-0.537 -2.94,0.485 -4.07,0 -0.614,-0.262 0.13,-1.352 -1.355,-1.355 -1.619,-0.006 -3.937,0.615 -5.43,1.355 -2.404,1.194 -3.669,3.336 -6.784,5.429 -1.359,0.913 -3.286,-0.023 -2.715,2.715 -1.03,-0.949 -4.293,-2.359 -5.428,-4.071 -0.623,-0.939 0.487,-3.042 0,-4.071 -0.146,-0.308 -2.691,-1.227 -2.714,-1.355 -0.163,-1.015 2.38,-3.215 1.355,-5.43 -1.474,-3.952 -5.543,-5.313 -9.498,-6.784 -1.125,1.469 -2.852,2.738 -4.07,4.07 -3.201,3.496 -6.602,7.057 -8.143,12.213 -1.386,0.641 -4.173,-0.833 -5.429,0 -0.437,0.289 0.412,2.376 0,2.715 -0.813,0.666 -6.719,-0.209 -6.785,4.07 -0.42,1.984 1.665,4.23 2.714,5.429 2.62,2.987 4.849,3.347 9.5,5.429 0.631,0.281 -0.109,1.279 1.356,1.355 1.562,0.082 2.428,0.06 2.714,1.357 2.813,1.54 5.438,1.365 8.143,4.071 3.022,3.021 2.963,-5.116 9.498,-5.43 2.693,-0.127 2.771,-0.379 6.784,2.715 5.56,-0.583 8.693,1.259 12.214,2.715 1.68,5.204 -6.607,2.072 -6.785,5.428 -0.092,1.744 -1.806,0.513 -2.715,1.356 -0.456,0.426 0.444,2.271 0,2.715 -0.461,0.464 -2.189,-0.412 -2.713,0 -5.548,4.396 -5.51,4.088 -8.143,12.213 -0.148,0.459 -1.287,0.022 -1.357,1.354 -0.068,1.354 0.06,2.718 0,4.071 2.489,2.938 5.289,5.565 10.856,5.428 1.819,0.835 0.446,3.559 1.355,5.429 0.298,0.608 2.488,0.856 2.714,1.356 0.334,0.741 -0.367,1.99 0,2.714 0.813,1.596 1.834,2.438 2.715,4.07 1.294,2.395 2.496,7.157 5.429,9.499 1.244,0.994 2.422,0.532 4.069,1.354 2.278,1.144 4.855,6.185 9.5,5.431 -1.451,5.067 3.367,3.864 2.714,8.142 -1.207,1.055 -3.063,1.459 -5.429,1.356 0.5,2.309 -1.06,2.561 -2.714,2.714 0.771,4.96 4.752,2.884 9.498,4.07 2.036,0.511 1.489,2.736 5.429,2.714 1.854,4.735 -1.916,6.521 -2.715,9.5 -0.32,1.206 1.323,6.815 0,8.142 -0.23,0.233 -2.646,-0.263 -2.714,0 -0.967,3.685 0.129,7.54 -1.355,10.854 0.049,-0.107 -2.328,0.581 -1.357,1.356 3.138,2.508 -0.464,2.203 -1.354,5.428 -0.84,3.026 0.895,5.792 -1.357,8.144 -1.6,1.67 0.388,4.233 -1.355,8.142 -0.345,0.771 -2.297,-0.196 -2.713,1.357 -0.228,0.844 0.172,1.854 0,2.714 -4.007,1.875 -5.494,6.267 -9.5,8.142 1.517,3.13 -1.189,3.485 -2.714,5.43 -0.803,1.021 -1.692,3.352 -2.715,4.069 -0.896,0.633 -3.067,-0.475 -4.069,0 -0.525,0.249 -0.953,2.568 -1.356,2.714 -2.853,1.029 -7.854,0.739 -10.856,1.356 -1.772,2.75 -7.182,1.863 -8.142,5.428 -1.531,0.558 -3.979,-0.723 -5.428,0 -0.285,0.146 -1.255,2.698 -1.356,2.715 -1.684,0.251 -4.479,-5.393 -5.429,0 -1.475,-0.336 -0.919,-2.696 -2.714,-2.715 -3.606,-1.166 -2.417,2.558 -5.429,2.715 -3.534,0.188 -2.415,2.557 -5.429,2.716 -3.618,0.188 -5.499,3.791 -8.142,6.782 -0.946,1.073 -3.261,1.585 -4.071,2.716 -1.133,1.575 0.931,5.112 -2.714,4.069 -1.205,-2.413 -3.787,-3.449 -2.714,-8.142 -1.092,-4.336 -6.979,-3.88 -9.499,-6.785 -2.668,-1.091 -3.055,2.371 -4.071,2.714 -1.599,0.539 -3.868,-0.635 -5.427,0 -1.537,0.626 -0.325,2.048 -1.357,2.714 -0.96,0.622 -3.101,-0.604 -4.068,0 -1.898,1.188 -2.933,3.564 -5.43,5.429 -1,0.632 -1.832,2.021 -2.715,2.715 -0.663,0.521 -1.158,1.689 -2.712,1.355 -0.356,1.711 0.463,3.747 0,5.428 -0.81,2.923 -3.635,1.908 -1.356,5.43 0.485,0.753 1.272,-0.212 1.356,1.355 0.058,1.121 1.251,2.219 1.355,4.07 0.138,2.427 1.518,4.922 2.713,6.785 0.481,0.751 1.275,-0.209 1.356,1.355 0.102,1.884 2.186,3.776 4.071,5.43 0.861,0.754 1.85,2.043 2.712,2.714 0.769,0.598 -0.228,1.271 1.356,1.354 2.865,0.151 9.371,6.655 12.214,9.499 1.562,1.563 1.9,2.183 2.715,5.429 0.371,1.483 2.618,0.916 2.714,2.715 0.017,0.313 -0.146,1.08 0,1.355 0.511,0.98 2.476,2.116 2.714,2.715 0.453,1.132 -0.549,2.988 0,4.069 0.521,1.028 2.054,1.279 2.714,2.714 0.229,0.49 -0.393,2.395 0,2.714 0.163,0.135 1.271,-0.173 1.356,0 0.753,1.525 -0.465,4.146 2.714,4.071 0,3.166 0,6.333 0,9.499 -0.445,2.931 2.189,2.034 2.714,4.07 0.964,3.752 -0.042,9.379 -1.354,12.213 -0.248,0.535 -1.06,0.158 -1.357,1.356 -0.64,2.559 -1.771,2.6 -2.714,5.429 0.229,-0.688 1.477,0.761 1.356,1.354 0.004,-0.019 -2.167,0.353 -1.356,1.357 -3.266,-2.079 -3.903,2.07 -5.428,2.714 -2.06,0.868 -4.761,0.375 -6.785,1.354 -1.653,0.806 -2.538,4.409 -5.427,2.717 -0.64,0.945 -0.892,1.541 -1.357,2.714 -0.192,0.48 0.375,2.406 0,2.714 -0.085,0.067 -3.888,0.416 -2.714,1.354 1.495,1.197 0.229,0.735 0,2.715 -2.589,0.577 -2.456,3.878 -6.784,2.715 1.676,4.392 -4.392,1.035 -2.716,5.428 -2.323,-1.743 -5.335,-2.808 -5.427,-6.784 -0.144,-4.212 4.271,-3.872 2.713,-9.499 -0.44,-3.177 -5.919,-1.316 -6.784,-4.071 -2.588,0.579 -2.455,3.879 -6.784,2.716 -1.055,-1.207 -1.459,-3.063 -1.354,-5.43 -0.544,-1.438 -2.923,-0.478 -4.071,-1.354 -0.456,-0.35 0.414,-2.302 0,-2.714 -0.345,-0.347 -2.494,0.4 -2.714,0 -0.472,-0.861 0.653,-3.37 0,-4.071 -1.873,-2.006 -4.728,-3.759 -6.785,-5.428 -1.752,-1.422 -5.662,-2.267 -5.428,-5.43 -5.979,1.415 -8.315,-6.895 -12.212,-9.498 -1.737,-1.159 -5.183,-0.043 -6.786,-2.713 -3.858,1.151 -4.181,4.252 -4.07,8.142 0.113,4.078 2.551,5.393 2.712,8.143 -0.245,2.805 0.962,6.302 -1.354,8.144 -1.841,1.464 -0.745,3.5 -1.355,8.142 -0.449,3.411 -2.496,4.926 -2.714,8.143 -1.455,2.801 2.306,1.92 2.714,2.715 0.521,1.016 -0.63,3.133 0,4.069 1.006,1.497 2.773,1.533 4.07,2.715 0.877,0.796 0.006,3.72 2.714,2.714 -1.766,7.193 3.931,6.925 2.715,13.568 1.016,0.746 1.813,1.87 2.712,2.714 1.367,1.275 1.556,3.933 5.432,2.715 3.212,5.396 9.187,9.07 14.926,13.569 1.633,1.278 4.342,2.366 5.429,4.07 0.614,0.967 -0.495,3.027 0,4.07 0.445,0.938 4.448,1.912 2.714,6.784 -0.589,1.587 2.442,0.721 2.714,1.356 0.646,1.519 -0.441,3.827 0,5.428 0.387,1.394 2.446,1.919 2.716,2.714 0.55,1.63 -0.5,3.781 0,5.429 0.198,0.654 2.604,2.274 2.714,2.715 0.137,0.542 -1.357,2.624 -1.357,4.07 0,3.521 3.232,3.663 2.714,6.784 -5.311,-2.145 -2.809,3.523 -5.429,4.07 -4.197,0.526 -1.813,-3.167 -5.427,-4.07 -2.896,-0.723 -6.488,-3.312 -8.144,-6.784 -1.781,-1.385 -5.003,-1.33 -6.785,-2.715 -1.394,-4.938 -4.745,-7.919 -5.427,-13.567 0.409,-1.639 -2.221,-0.659 -2.715,-1.357 -0.786,-1.109 0.947,-5.624 -2.715,-5.428 0,-2.714 0,-5.429 0,-8.143 -0.334,-1.475 -2.697,-0.922 -2.712,-2.715 -0.313,-2.202 0.41,-4.602 0,-6.784 -0.239,-1.264 -2.617,-2.178 -2.715,-2.714 -0.17,-0.934 1.857,-1.554 1.355,-2.715 -1.039,-2.395 -3.119,-4.585 -5.429,-6.784 -0.748,-0.712 0.218,-1.272 -1.358,-1.355 -2.684,-0.142 -2.22,-3.473 -5.426,-4.071 -0.593,-0.11 -2.258,0.354 -2.715,0 -0.443,-0.342 0.437,-2.356 0,-2.714 -1.141,-0.933 -3.455,0.037 -2.714,-2.714 -2.837,0.575 -3.596,-0.932 -5.429,-1.355 -1.966,-4.711 2.062,-6.556 2.717,-9.499 0.528,-2.392 -1.521,-6.132 1.354,-8.143 1.011,-4.179 -3.726,-2.607 -2.714,-6.785 -0.063,-4.132 2.867,-5.275 4.07,-8.142 0.345,-8.033 0.748,-16.127 -5.429,-17.643 -0.096,-3.255 -0.623,-5.958 -2.715,-8.142 -1.753,-1.832 0.109,-2.816 -1.354,-6.785 -0.541,-1.462 -2.23,-0.432 -2.714,-1.356 -0.721,-1.375 0.418,-3.915 0,-5.429 -0.387,-1.387 -2.449,-1.923 -2.716,-2.714 -0.529,-1.581 0.667,-3.909 0,-5.428 -2.043,-4.654 -5.197,-8.649 -8.143,-12.213 -7.748,1.75 -8.534,10.464 -16.283,12.213 -0.415,-3.765 -4.975,-1.979 -6.784,-4.07 -1.461,-1.687 1.26,-5.896 -2.715,-5.429 -0.655,-4.273 4.165,-3.072 2.715,-8.143 -4.04,-9.981 -9.648,-18.396 -13.568,-28.496 -2.355,1.047 -3.279,-0.989 -4.071,-1.356 -1.17,-0.541 -2.562,-0.652 -4.07,-1.355 -1.842,-0.855 -3.28,-3.66 -6.784,-2.715 1.719,-3.523 -1.586,-3.455 -2.714,-5.428 -0.433,-0.754 0.628,-3.52 0,-4.07 -0.351,-0.309 -2.517,0.383 -2.715,0 -0.918,-1.77 -0.146,-5.104 -1.355,-6.784 -1.086,-1.506 -2.695,-5.284 -5.43,-5.43 -2.272,-0.12 -2.585,-0.584 -2.714,-2.714 -2.712,-0.406 -3.233,1.509 -5.428,2.714 -0.497,0.273 -2.374,-0.416 -2.712,0 -0.226,0.272 -1.129,2.615 -1.357,2.714 -1.527,0.668 -3.857,-0.568 -5.428,0 -1.411,0.516 -0.971,2.563 -2.716,2.716 -4.966,-0.202 -8.557,-0.338 -12.212,1.355 -0.533,0.248 -0.159,1.059 -1.356,1.357 -2.07,0.517 -5.072,0.33 -6.786,2.714 -1.133,1.575 0.932,5.112 -2.712,4.069 0.881,1.38 3.118,1.402 2.712,4.07 0,1.81 0,3.619 0,5.429 -2.354,-1.048 -3.276,0.99 -4.068,1.355 -1.17,0.543 -2.563,0.655 -4.071,1.356 -1.842,0.856 -3.281,3.658 -6.785,2.714 -0.602,1.207 -1.189,2.428 -2.714,2.715 -0.655,4.32 -4.271,5.679 -4.069,10.854 -2.358,-1.048 -3.279,0.991 -4.07,1.357 -0.586,0.271 -5.351,1.185 -5.43,2.714 -0.094,1.765 -3.799,2.229 -5.429,4.07 0.985,4.149 -2.34,3.991 -1.356,8.143 -1.688,-0.028 -1.797,2.014 -2.715,2.714 -1.149,0.881 -2.688,0.466 -4.07,1.356 -1.27,0.818 -1.688,1.931 -2.714,2.714 -1.068,0.818 -2.854,0.47 -4.07,1.356 -1.764,1.288 -3.215,3.32 -5.427,5.429 -1.765,1.678 -4.758,2.771 -5.431,5.428 -1.938,3.466 1.83,4.783 2.715,8.143 0.771,2.928 0.784,5.854 1.357,8.144 0.486,1.948 -0.783,12.034 -2.715,13.568 -0.584,0.468 -1.717,-0.02 -1.357,1.356 -0.48,8.018 1.246,16.098 -1.354,21.711 -0.247,0.534 -1.059,0.159 -1.357,1.357 -0.178,0.711 0.368,2.094 0,2.714 -0.249,0.418 -2.352,-0.362 -2.714,0 -1,0.999 -0.502,4.367 -1.356,5.428 -1.577,1.956 -4.104,2.979 -5.428,4.07 0.373,5.803 -3.938,6.918 -6.785,9.499 -4.509,-1.823 -8.854,-3.813 -13.569,-5.429 -0.284,-2.214 0.375,-4.589 0,-6.784 -0.456,-2.669 -2.178,-3.159 -2.715,-5.43 -1.021,-4.316 2.186,-3.407 0,-6.784 -0.485,-0.75 -1.273,0.214 -1.355,-1.355 -0.074,-1.388 -0.062,-2.646 -1.357,-2.714 -3.653,-0.192 1.015,-5.23 -2.714,-5.428 -1.604,-0.084 -0.693,-1.712 -1.356,-2.715 -0.577,-0.872 -2.399,-2.09 -2.715,-2.715 -0.831,-1.653 -0.372,-4.265 -1.356,-6.784 -0.581,-1.484 -1.797,-2.704 -2.714,-4.07 -0.913,-1.36 0.022,-3.286 -2.714,-2.714 1.22,-4.365 -1.015,-6.524 -2.715,-9.498 -0.984,-1.727 -0.218,-3.967 -2.714,-4.071 1.354,-3.916 0.817,-2.979 -1.356,-6.785 -0.284,-0.497 0.42,-2.368 0,-2.714 -2.061,-1.684 -2.441,-2.813 -4.07,-6.783 -0.179,-0.435 -1.079,-0.244 -1.356,-1.356 -0.192,-0.769 0.346,-2.014 0,-2.714 -0.3,-0.605 -2.489,-0.858 -2.715,-1.357 -0.959,-2.128 0.121,-3.942 -1.356,-6.784 -0.309,-0.591 -2.493,-0.863 -2.714,-1.355 -0.651,-1.444 0.854,-5.396 -2.714,-5.429 0,-2.715 0,-5.429 0,-8.143 -0.735,-1.34 -2.177,-1.094 -2.714,-2.714 -0.988,-2.978 0.928,-5.757 -1.357,-8.143 -1.273,-1.331 -1.188,-2.677 -1.356,-6.784 -0.194,-4.777 4.658,-6.544 2.715,-13.569 -0.386,-1.391 -2.445,-1.919 -2.715,-2.714 -0.94,-2.786 0.899,-6.65 -2.714,-8.144 -5.659,0.04 -6.106,5.28 -4.071,9.499 -2.393,1.229 -4.201,3.035 -5.428,5.429 -2.547,-1.396 -8.896,1.959 -10.855,0 -0.333,-0.332 0.391,-2.514 0,-2.714 -2.657,-1.363 -4.299,-0.229 -6.785,-2.715 -1.872,-1.871 -4.027,-5.432 -5.428,-9.499 3.099,-0.988 6.854,0.048 9.498,-4.069 0.709,-1.895 -0.907,-2.021 -1.356,-2.714 -0.077,-0.119 -1.372,-2.718 -1.356,-2.714 -2.715,-0.628 -2.788,3.654 -5.428,2.714 -5.048,-1.801 -7.203,-4.643 -10.855,-9.499 -5.413,1.341 -4.086,-4.057 -9.499,-2.715 -2.5,-0.692 0.623,-3.571 0,-4.07 -0.438,-0.349 -3.99,-1.399 -2.714,-5.428 -5.087,-3.055 -10.414,-5.87 -16.284,-8.144 -3.009,-0.755 -1.932,2.604 -4.071,2.714 -1.992,0.106 -3.283,1.322 -5.428,2.715 -3.459,-0.438 -6.57,0.594 -9.499,0 -2.571,-0.521 -3.465,-2.405 -5.428,-2.715 -4.374,-0.688 -9,1.462 -13.57,-1.354 -2.854,1.216 -6.032,2.107 -8.142,4.069 -5.409,0.435 -10.026,0.075 -12.215,-2.715 -3.978,-0.265 -7.021,0.364 -9.499,0 -3.806,-0.561 -5.751,-4.235 -10.854,-2.714 -2.242,-7.71 -8.236,-11.667 -13.57,-16.283 -2.912,-1.519 -4.515,1.994 -6.785,2.715 -1.226,0.389 -2.811,-0.273 -4.069,0 -1.708,0.37 -8.044,2.312 -13.57,1.355 0.188,0.032 -0.728,-1.199 -1.357,-1.355 -2.636,-0.658 -2.591,-1.405 -5.428,-2.715 -0.492,-0.227 -2.393,0.394 -2.714,0 -0.145,-0.178 0.188,-1.253 0,-1.355 -2.173,-1.207 -6.904,-1.052 -5.428,-4.07 -5.288,0.313 -7.036,-2.916 -10.856,-4.071 -1.817,-0.835 -0.447,-3.558 -1.355,-5.428 -0.296,-0.608 -2.489,-0.855 -2.714,-1.355 -0.896,-1.983 -0.521,-3.337 -1.357,-5.43 -0.629,-1.572 -3.285,-2.362 -2.714,-6.782 -1.606,-2.016 -5.126,-2.111 -6.785,-4.071 -0.672,-1.394 -2.75,-0.535 -4.071,-1.357 -1.213,-0.755 -1.12,-2.377 -2.714,-2.714 -5.953,1.947 -11.282,4.788 -12.213,10.856 -0.545,3.554 3.256,2.718 2.714,5.428 -0.021,0.107 -2.06,0.201 -1.355,1.355 1.315,2.163 4.272,3.041 5.428,4.07 -1.304,5.258 4.574,6.688 6.785,9.499 0.573,0.729 -0.686,3.469 0,4.07 0.371,0.327 2.483,-0.401 2.714,0 0.956,1.678 -2.274,6.627 2.714,5.428 0.321,2.604 -0.427,6.101 0,8.143 0.302,1.446 1.942,2.722 2.714,4.07 0.985,1.726 0.218,3.968 2.714,4.071 3.366,0.2 6.584,0.253 6.785,-2.714 3.252,0.538 -0.753,-6.183 4.071,-4.071 4.924,-1.306 1.14,6.1 5.428,5.428 -1.123,4.87 3.062,6.565 0,9.499 3.638,3.861 12.426,6.411 16.284,2.714 1.193,-1.144 8.476,-0.442 9.499,-2.714 0.287,-0.638 -0.429,-2.184 0,-2.714 0.37,-0.457 2.291,0.423 2.714,0 0.449,-0.449 -0.455,-2.271 0,-2.714 0.46,-0.449 2.259,0.454 2.713,0 0.413,-0.412 -0.455,-2.365 0,-2.714 1.198,-0.916 3.098,-0.286 4.071,-1.357 -0.221,-1.577 0.299,-2.414 1.355,-2.714 2.538,-1.983 1.603,-7.442 6.785,-6.784 -0.461,2.725 0.277,4.245 2.714,4.07 1.013,4.177 -3.725,2.608 -2.714,6.785 -1.011,4.177 3.727,2.607 2.714,6.784 0.864,1.47 2.643,1.788 4.071,2.714 2.285,1.48 4.149,2.435 8.142,4.071 0.436,0.178 0.243,1.077 1.357,1.355 0.852,0.213 1.85,-0.163 2.714,0 1.875,4.004 6.269,5.494 8.144,9.498 3.482,-1.21 3.864,1.437 5.428,2.714 1.645,1.352 2.356,2.646 4.071,4.071 0.852,7.554 -6.595,10.663 -10.855,14.927 -1.484,1.484 -3.537,3.323 -4.071,4.07 -1.014,1.417 1.093,4.071 -1.355,4.071 -1.282,0 -1.102,1.687 -1.357,2.714 -0.293,1.174 -2.614,2.215 -2.714,2.714 -0.147,0.745 0.997,1.934 1.357,1.355 -1.064,1.704 -2.326,2.326 -4.071,4.07 -1.301,1.302 -3.593,3.272 -4.071,4.071 -1.188,1.981 0.017,3.891 -1.355,5.428 -1.055,1.181 -2.951,1.594 -4.071,2.714 -1.044,1.044 -1.582,3.171 -2.714,4.071 -1.822,1.447 -4.661,1.187 -6.785,2.714 -1.857,1.335 -1.206,3.672 -4.071,4.07 -11.18,-1.682 -13.791,5.206 -21.711,6.783 0.222,1.578 -0.3,2.414 -1.355,2.716 -2.512,0.203 -0.833,4.595 -2.715,5.428 -3.313,0.756 -2.893,5.25 -8.143,4.07 1.676,4.391 -4.391,1.036 -2.714,5.429 -3.093,-0.379 -5.101,0.325 -5.428,2.714 -3.032,-0.43 -6.664,0.461 -9.499,1.355 -1.413,0.446 -1.852,2.371 -2.714,2.716 -1.562,0.614 -3.881,-0.644 -5.43,0 -0.809,0.335 -1.521,2.116 -2.714,2.714 -1.582,0.791 -2.656,0.702 -4.07,1.354 -0.531,0.245 -0.16,1.06 -1.356,1.357 -1.937,0.481 -3.612,0.432 -5.428,1.356 -1.216,0.617 -1.459,1.935 -2.715,2.713 -1.39,0.863 -2.782,0.623 -4.07,1.356 -0.687,0.39 -0.024,1.024 -1.357,1.356 -0.743,0.186 -2.049,-0.357 -2.714,0 -1.2,0.646 -0.942,2.171 -2.714,2.714 -3.403,1.043 -7.848,-1.65 -10.856,1.355 -0.08,0.081 0.08,1.351 0,1.356 -1.81,0.196 -4.96,-2.957 -6.783,-1.356 -0.987,-1.439 -1.719,-2.586 -2.716,-4.069 -0.367,-0.552 0.458,-2.256 0,-2.716 -0.34,-0.339 -2.501,0.399 -2.714,0 -0.858,-1.612 -0.438,-4.776 -1.355,-6.782 -0.753,-1.646 -2.219,-2.229 -2.714,-4.071 -1.296,-4.813 2.131,-11.173 -2.715,-14.927 -0.488,-3.917 0.672,-6.6 0,-9.499 -1.448,-6.272 -8.298,-9.502 -12.213,-13.569 2.025,-3.298 -2.006,-3.862 -2.714,-5.428 -1.031,-2.28 -0.243,-3.678 -1.355,-5.428 -2.667,-4.189 -6.443,-8.462 -12.213,-9.5 1.67,-4.03 -2.571,-4.068 -2.716,-6.784 -0.099,-1.879 -2.014,-0.329 -2.714,-1.356 -0.627,-0.92 0.481,-3.055 0,-4.071 -0.271,-0.571 -2.526,-0.897 -2.714,-1.354 -0.628,-1.545 0.447,-3.813 0,-5.428 -0.289,-1.045 -2.654,-2.354 -2.714,-2.714 -0.163,-0.983 1.788,-2.218 1.357,-4.071 -0.616,-2.645 -3.697,-5.749 -2.716,-9.499 0.409,-1.635 -2.22,-0.657 -2.714,-1.356 -0.396,-0.56 0.46,-2.219 0,-2.714 -0.426,-0.459 -2.27,0.445 -2.714,0 -0.452,-0.453 0.453,-2.264 0,-2.714 -1.621,-1.616 -3.95,-3.931 -6.785,-4.071 -0.307,-1.262 0.385,-2.832 0,-4.069 -0.542,-1.75 -1.922,-0.238 -2.714,-1.356 -0.432,-0.611 0.391,-2.071 0,-2.714 -2.355,-3.882 -5.938,-6.796 -9.499,-9.499 0.657,-6.69 -6.871,-8.384 -9.499,-12.213 -0.515,-0.75 0.665,-3.486 0,-4.07 -0.343,-0.301 -2.524,0.375 -2.714,0 -0.453,-0.903 1.816,-6.482 -2.714,-5.428 0,-2.714 0,-5.429 0,-8.144 -1.185,-2.453 -1.771,-1.646 -2.714,-5.429 -0.325,-1.303 -1.644,-3.114 -2.714,-5.428 -0.248,-0.534 -1.059,-0.159 -1.357,-1.356 -0.667,-2.668 -2.389,-5.731 -4.071,-9.498 -0.225,-0.506 -1.063,-0.186 -1.355,-1.356 -0.75,-2.998 -1.358,-2.554 -1.357,-6.784 -0.934,-3.647 2.807,-2.624 4.071,-4.071 0.756,-5.068 1.298,-11.787 2.714,-16.281 0.616,-1.956 0.204,-2.829 2.714,-2.716 0.114,-5.116 -0.013,-9.441 1.357,-14.927 0.64,-2.557 0.401,-3.109 0,-8.142 -0.181,-2.248 0.137,-4.534 0,-6.785 1.208,-1.055 3.063,-1.459 5.428,-1.357 -1.961,-2.107 -2.854,-5.286 -4.071,-8.142 -1.577,0.222 -2.415,-0.299 -2.714,-1.357 -3.053,0.597 -5.646,-0.813 -8.142,0 -0.663,0.219 -0.845,2.483 -1.357,2.716 -2.29,1.03 -3.677,0.224 -5.428,1.355 -0.752,0.486 0.211,1.275 -1.357,1.357 -2.354,0.123 -2.834,2.028 -5.428,2.714 -1.751,0.461 -4.979,0.22 -6.785,0 -3.039,-0.371 -2.471,-1.218 -4.069,-2.714 -1.956,-1.829 -4.146,-2.433 -8.144,-4.071 -0.434,-0.177 -0.243,-1.077 -1.355,-1.357 -0.853,-0.212 -1.853,0.163 -2.715,0 -5.443,-0.468 -6.583,3.369 -9.499,5.43 -2.564,-0.604 -8.179,1.845 -6.784,-2.714 -6.508,0.925 -8.618,-0.479 -12.213,-2.716 -0.736,-0.457 0.024,-1.012 -1.357,-1.355 -0.852,-0.213 -1.85,0.163 -2.714,0 -0.619,-7.977 -7.312,-9.877 -5.428,-20.354 -1.319,-1.75 -2.122,-3.854 -4.071,-5.428 -1.425,-1.148 -6.183,-0.469 -5.428,-4.071 -0.989,-3.517 2.406,-1.764 4.069,-2.714 1.42,-0.813 1.373,-3.174 4.071,-2.714 4.27,-1.555 3.297,2.129 5.428,2.714 5.846,-2.75 13.201,-3.984 13.569,-12.213 3.598,-0.021 7.99,0.753 8.142,-2.714 4.274,-0.656 3.072,4.165 8.144,2.714 3.605,1.166 2.417,-2.555 5.428,-2.714 0.932,-0.049 4.919,-0.104 4.071,-4.071 3.093,0.38 5.101,-0.326 5.428,-2.714 4.813,0.397 9.169,-0.537 13.569,0 3.364,0.409 2.253,1.979 5.428,2.714 1.224,0.284 8.42,-1.316 9.499,0 1.051,1.285 0.995,2.008 2.714,2.714 2.074,0.854 5.095,0.521 6.785,1.357 0.708,0.35 1.774,2.087 2.714,2.714 1.368,0.912 3.281,-0.021 2.714,2.714 2.221,0.265 4.577,-0.347 6.785,0 3.809,0.601 7.049,5.292 13.57,2.714 1.131,-0.444 0.93,-2.333 2.714,-2.714 2.163,-0.461 4.598,0.352 6.785,0 0.553,-0.977 2.122,-1.862 2.714,-2.714 0.531,-0.762 1.272,0.22 1.355,-1.355 0.186,-3.499 2.501,-3.552 4.071,-6.785 -0.433,-3.188 -2.144,-5.096 -1.356,-9.499 2.338,1.043 3.86,1.83 6.784,2.714 3.319,1.003 7.183,1.168 9.499,2.714 1.313,0.875 2.141,0.873 4.071,1.356 1.495,0.374 6.642,2.89 9.499,4.07 5.089,2.104 10.391,2.896 13.57,6.785 4.076,-0.077 8.399,1.078 10.854,2.714 1.479,0.987 2.475,1.813 4.071,2.714 2.361,1.332 4.717,1.626 6.785,2.715 0.896,0.473 1.938,2.282 2.714,2.715 0.497,0.273 2.373,-0.417 2.714,0 0.482,0.589 3.983,3.153 6.785,4.069 0.386,2.901 -2.114,2.075 -2.714,4.071 -0.871,2.896 1.427,7.443 -4.071,6.785 0.637,0.948 0.889,1.542 1.357,2.714 0.191,0.483 -0.374,2.408 0,2.714 1.674,1.369 2.541,-0.345 2.714,2.714 0.051,0.901 -0.04,1.813 0,2.714 3.009,-0.754 1.932,2.603 4.069,2.715 2.353,0.122 4.915,0.925 6.786,2.715 1.531,1.466 3.215,0.309 5.428,1.355 0.71,0.335 0.766,2.376 1.356,2.714 0.754,0.434 3.519,-0.628 4.071,0 0.308,0.352 -0.381,2.519 0,2.714 1.434,0.743 3.927,-0.616 5.428,0 0.345,0.144 -0.292,2.422 0,2.716 0.022,0.021 5.307,1.381 6.785,1.354 0.854,-0.015 4.958,-0.781 5.428,-1.354 0.132,-0.162 -0.172,-1.272 0,-1.357 0.833,-0.407 4.41,-0.571 5.428,-1.356 2.471,-1.902 1.842,-9.237 8.144,-8.143 0.41,-1.635 -2.22,-0.657 -2.714,-1.356 -0.786,-1.109 0.945,-5.625 -2.714,-5.429 0,-2.714 0,-5.428 0,-8.142 0.813,-3.037 -3.928,-1.325 -4.071,-4.071 -0.016,-0.286 -2.438,-2.506 -2.714,-2.714 -0.657,-0.493 -1.165,-1.715 -2.714,-1.357 0.23,-5.658 -4.161,-6.693 -4.071,-12.213 3.37,-0.203 5.631,0.701 6.785,2.714 2.381,-2.9 5.474,-1.822 8.142,-4.069 2.823,-2.378 -1.462,-4.192 -5.428,-9.499 -0.36,-0.481 0.45,-2.348 0,-2.714 -1.483,-1.216 -4.216,-2.349 -5.428,-5.43 -2.614,1.91 -5.459,3.586 -9.499,4.071 1.164,-4.33 -2.138,-4.197 -2.715,-6.785 -6.041,0.162 -7.01,-4.75 -13.568,-4.07 1.074,-2.884 -1.812,-1.81 -2.714,-2.715 -0.453,-0.451 0.452,-2.261 0,-2.714 -0.404,-0.402 -2.389,0.451 -2.714,0 -0.376,-0.517 0.159,-2.073 0,-2.714 -0.447,-1.791 -2.413,-2.128 -2.716,-4.071 -0.727,-3.542 1.982,-2.501 2.716,-5.428 0.149,-0.6 -0.373,-2.251 0,-2.714 0.367,-0.458 2.292,0.421 2.714,0 0.376,-0.376 -0.434,-2.439 0,-2.714 0.585,-0.373 2.023,0.172 2.714,0 1.79,-0.448 2.128,-2.413 4.071,-2.714 3.598,0.02 7.988,-0.752 8.142,2.714 4.33,1.164 4.197,-2.136 6.785,-2.714 0.409,-1.636 -2.221,-0.659 -2.714,-1.357 -0.396,-0.559 0.46,-2.218 0,-2.714 -0.426,-0.458 -2.271,0.444 -2.715,0 -0.465,-0.464 0.412,-2.193 0,-2.714 -1.66,-2.095 -3.862,-4.389 -5.429,-6.785 -4.1,1.813 -3.049,-2.119 -5.428,-2.714 -2.834,-0.709 -4.574,-2.377 -8.142,-4.071 -5.226,-15.131 -14.486,-26.222 -18.997,-42.064 1.669,-0.592 2.787,-1.736 2.714,-4.071 7.727,-0.941 11.271,2.299 18.998,1.357 1.393,-4.562 -4.223,-2.112 -6.785,-2.715 0.42,-1.843 3.396,-1.126 5.428,-1.356 8.487,-0.692 18.046,-4.273 25.782,-1.356 0.479,0.181 2.414,-0.365 2.714,0 0.908,1.108 1.036,0.938 2.714,1.356 -0.051,-0.013 3.978,1.24 4.071,1.356 0.861,1.054 4.267,2.735 6.785,4.07 0.838,0.444 3.128,0.649 4.07,1.357 0.773,0.581 0.669,2.063 1.356,2.714 0.472,0.445 2.256,-0.457 2.714,0 0.077,0.077 -1.817,3.426 0,4.071 4.692,-1.073 5.729,1.508 8.144,2.714 3.605,1.166 2.417,-2.556 5.428,-2.714 1.387,-0.073 2.646,-0.063 2.714,-1.357 0.112,-2.132 4.937,-1.753 5.427,-5.428 -0.148,-1.079 -4.484,-4.113 -4.069,-1.357 -0.488,-0.948 -2.207,-1.896 -2.716,-2.714 -1.273,-2.051 -2.03,-4.293 -4.069,-6.785 -1.82,-2.225 -1.709,-2.164 -2.714,-6.784 -0.282,-1.298 -1.478,-6.466 -2.716,-9.499 -1.969,-4.824 -5.104,-6.326 -6.783,-10.855 -5.067,2.171 -6.032,8.44 -12.214,9.499 -3.167,-2.858 -6.36,-5.27 -9.499,-8.143 -2.996,-2.743 -4.758,-7.223 -9.498,-8.143 2.627,-2.801 8.267,-2.589 12.213,-4.071 3.402,-2.023 4.764,-6.092 6.784,-9.499 -2.625,-5.517 -6.424,-9.857 -9.499,-14.926 -0.937,-11.014 1.312,-19.284 0,-27.14 -0.813,-4.873 -4.88,-11.339 -6.784,-16.284 -0.76,-1.97 -0.401,-3.485 -1.357,-5.428 -0.33,-0.672 -1.277,0.143 -1.355,-1.357 -0.095,-1.761 -2.137,-1.688 -2.715,-2.714 -1.017,-1.797 -0.388,-3.536 -1.356,-5.428 -0.4,-0.782 -2.227,-0.707 -2.714,-1.357 -0.361,-0.48 0.45,-2.346 0,-2.714 -0.626,-0.513 -2.269,-2.815 -1.357,-6.785 1.999,-2.453 7.458,-3.304 12.213,-5.428 0.505,-0.225 0.185,-1.063 1.357,-1.357 2.54,-0.635 5.298,-1.366 8.142,-2.714 0.656,-0.31 -0.13,-1.277 1.357,-1.355 2.923,-0.154 6.43,-3.996 9.499,-6.785 0.103,-0.094 2.722,-1.431 2.714,-1.357 0.272,-2.469 -9.602,-9.532 -12.213,-12.212 0.476,-1.688 7.821,1.118 12.213,0 0.118,4.405 8.091,0.955 6.785,6.785 3.436,-1.54 7.692,-2.257 9.499,-5.428 -0.189,-1.527 -0.598,-5.316 -2.714,-5.429 -3.536,-0.187 -2.417,-2.557 -5.43,-2.715 -0.301,-0.016 -1.101,0.146 -1.355,0 -0.886,-0.5 -2.184,-2.5 -2.714,-2.714 -1.145,-0.457 -2.967,0.534 -4.071,0 -1.018,-0.49 -1.044,-4.124 -5.428,-2.714 0.469,-5.896 -3.282,-7.573 -4.071,-12.212 -1.603,-3.576 6.548,-3.638 6.785,-8.142 0.069,-1.333 4.015,-1.61 8.142,-2.715 0.354,-0.095 0.11,-1.291 1.357,-1.356 1.698,-0.089 3.744,-0.232 5.428,0 2.784,0.383 2.153,1.643 4.071,2.714 1.502,0.839 2.877,0.333 4.07,1.357 1.852,1.589 4.066,4.467 4.07,6.784 4.91,3.515 6.984,10.812 12.212,14.927 0.77,0.604 -0.227,1.271 1.357,1.355 1.939,0.104 0.686,2.653 1.355,4.071 0.559,1.175 5.438,3.432 6.785,5.428 0.375,0.559 -0.167,2.046 0,2.714 0.447,1.79 2.413,2.128 2.714,4.071 -0.315,4.367 -4.211,4.63 -5.428,9.499 -0.558,2.23 -2.359,1.7 -4.071,4.071 0.48,1.781 2.391,2.135 2.715,4.069 4.268,1.294 5.998,-1.776 8.143,-2.714 1.711,-0.748 2.587,-0.669 4.071,-1.355 0.532,-0.248 0.157,-1.06 1.355,-1.357 0.854,-0.213 1.852,0.163 2.714,0 0.964,-2.058 0.402,-4.262 1.357,-6.785 0.753,-1.986 5.042,-4.585 2.714,-9.499 -0.314,-0.664 -2.436,-0.807 -2.714,-1.355 -0.738,-1.457 -0.271,-4.25 -1.357,-5.429 -0.399,-0.437 -2.342,0.454 -2.714,0 -0.888,-1.085 0.577,-2.611 -1.355,-2.715 -3.626,-0.188 -2.79,-3.022 -8.144,-2.714 -0.88,-2.956 -4.112,-3.497 -5.428,-6.785 -0.194,-0.48 0.374,-2.406 0,-2.714 -0.819,-0.67 -4.31,-2.519 -2.714,-6.785 5.11,-4.121 9.968,1.081 14.927,1.357 2.845,1.361 1.861,-2.184 2.714,-2.714 0.599,-0.372 2.019,0.175 2.714,0 1.197,-0.298 2.327,-0.921 4.071,-1.356 1.386,-0.346 0.657,-1.033 1.356,-1.355 0.891,-0.412 3,-0.661 4.07,-1.357 3.571,-2.321 7.061,-5.957 9.499,-9.499 2.357,1.047 3.28,-0.989 4.071,-1.355 1.767,-0.819 5.42,-1.453 8.142,-2.715 0.534,-0.247 0.158,-1.059 1.357,-1.356 4.049,-1.013 7.311,0.639 12.212,2.714 3.831,-0.692 5.763,-3.284 9.499,-4.071 -0.896,-1.675 -0.248,-3.864 -1.357,-5.428 -0.537,-0.758 -3.917,-0.095 -2.714,-2.714 -1.814,-4.099 4.145,-2.183 5.43,-2.714 1.672,-0.692 2.201,-2.294 4.069,-2.714 5.437,-1.223 13.891,0.213 20.354,-1.357 0.446,-0.108 2.452,0.321 2.714,0 0.872,-1.063 0.99,-2.486 2.714,-2.714 4.705,-0.619 10.631,-0.461 14.928,0 3.104,0.333 3.713,2.225 6.784,2.714 2.206,0.353 4.564,-0.265 6.785,0 1.362,-1.348 2.778,-2.652 4.07,-4.07 1.088,-1.192 2.965,-1.546 2.715,-4.07 5.802,0.374 6.917,-3.938 9.498,-6.785 -2.646,-3.097 -12.736,-0.518 -18.997,-1.357 -5.082,-0.105 -4.102,5.853 -10.855,4.071 5.098,-4.004 -2.385,-5.494 2.714,-9.499 -11.349,-0.912 -20.427,1.24 -29.854,0 -2.336,-0.308 -2.792,-2.106 -5.428,-2.714 -0.896,-0.207 -7.19,1.163 -8.144,0 -0.883,-1.08 -0.982,-2.462 -2.714,-2.714 -4.231,-0.616 -8.777,0.319 -13.57,0 -2.413,-0.162 -7.986,1.68 -9.499,-2.714 -1.317,-4.939 6.61,-0.627 4.071,-6.785 3.6,-0.021 7.99,0.753 8.144,-2.714 1.355,0 2.714,0 4.069,0 0,0.452 0,0.903 0,1.355 2.15,2.241 5.321,0.641 8.144,1.357 1.521,0.388 1.793,2.35 2.714,2.714 1.545,0.611 3.918,-0.682 5.428,0 2.692,1.217 3.72,4.673 6.785,4.071 4.071,0 8.142,0 12.212,0 5.688,-0.262 4.194,6.66 10.855,5.428 5.9,0.396 10.459,-0.55 14.928,0 2.252,0.277 1.479,0.429 2.714,1.356 0.768,0.574 -0.227,1.272 1.356,1.356 3.996,0.21 12.185,0.711 18.998,1.357 3.354,1.591 -3.292,5.639 2.714,5.428 3.167,0 6.333,0 9.499,0 0.08,3.505 3.539,1.971 5.429,2.714 0.564,0.223 -0.06,1.283 1.356,1.357 5.046,0.265 4.287,5.132 9.499,5.428 1.135,0.063 7.961,1.012 10.855,0 0.485,-0.17 0.047,-2.364 1.356,-2.714 2.698,-0.723 13.601,-0.598 18.998,0 2.626,0.291 3.785,2.171 6.783,2.714 3.642,0.66 6.219,-0.51 9.5,0 -1.075,2.883 1.809,1.809 2.714,2.714 0.452,0.452 -0.452,2.262 0,2.714 0.949,0.95 8.239,0.058 6.784,5.428 -0.011,1.977 -2.744,0.645 -4.07,1.357 -0.977,0.525 -1.406,2.014 -2.714,2.714 -0.563,0.302 -2.276,-0.437 -2.714,0 -0.333,0.333 0.391,2.514 0,2.714 -1.029,0.529 -3.103,-0.62 -4.071,0 -1.866,1.195 -2.03,3.899 -4.07,5.429 -2.009,1.507 -7.365,-0.514 -5.429,4.07 4.469,1.362 15.191,1.725 17.642,-1.355 1.688,-2.127 2.454,-0.029 6.784,-1.357 3.27,-1.002 4.755,-2.79 8.143,-2.714 3.958,0.089 1.081,1.823 5.429,2.714 2.12,0.436 4.719,-0.625 6.784,0 0.68,0.205 0.834,2.466 1.358,2.714 1.084,0.516 2.908,-0.341 4.068,0 1.655,0.486 2.733,1.313 5.428,1.357 2.209,0.036 2.317,-1.048 4.07,-1.357 1.733,-0.306 3.724,0.416 5.429,0 2.384,-0.582 4.545,-2.974 8.143,-2.714 2.45,0.208 4.299,2.043 6.785,2.714 2.867,0.774 7.002,0.612 12.214,1.357 0.412,0.058 2.479,-0.286 2.714,0 0.467,0.567 3.189,4.59 6.784,2.714 9.877,-4.486 16.224,-4.071 29.853,-4.071 7.734,0 16.383,-0.733 21.713,2.714 0.753,0.488 -0.21,1.275 1.355,1.357 3.536,0.186 2.417,2.555 5.429,2.714 3.511,0.185 6.004,4.581 9.5,6.785 0.493,0.313 2.358,-0.434 2.713,0 1.091,1.333 1.146,1.779 2.715,2.714 0.496,0.295 2.365,-0.427 2.715,0 0.887,1.085 -0.578,2.612 1.355,2.714 3.536,0.188 2.415,2.556 5.428,2.714 2.676,0.143 7.552,2.315 12.215,0 1.147,-0.569 1.943,-2.357 2.713,-2.714 2.05,-0.947 3.813,-0.693 5.428,-1.355 0.434,-0.18 0.243,-1.079 1.356,-1.357 0.853,-0.213 1.851,0.163 2.715,0 3.053,-2.32 4.166,2.369 5.428,2.714 4.778,1.304 9.956,-0.254 14.928,1.357 0.46,0.147 0.023,1.287 1.355,1.355 1.354,0.072 2.718,-0.057 4.071,0 -0.244,-3.587 3.748,-1.776 5.428,-2.714 0.991,-0.553 -0.405,-2.244 1.356,-2.714 0.844,-0.226 1.854,0.172 2.716,0 2.615,-3.186 2.27,-2.396 1.355,-5.428 -0.076,-0.25 -5.976,-3.042 -1.355,-4.071 4.146,1.218 6.137,-2.197 9.497,-2.714 3.047,-0.468 7.036,-0.165 10.854,0 3.3,0.142 5.812,2.229 9.498,2.714 4.108,0.54 6.912,-0.405 10.855,0 1.772,2.75 7.185,1.865 8.143,5.428 4.448,-0.076 5.188,-3.857 10.854,-2.714 4.244,1.636 6.73,5.029 13.568,4.071 -0.835,2.813 1.496,1.903 2.715,2.714 2.141,1.426 1.815,1.811 5.429,2.714 2.12,0.53 1.578,1.965 5.43,2.714 7.752,1.508 18.017,-0.476 28.495,0 7.867,0.358 15.201,1.818 23.067,1.357 4.944,-0.29 9.915,-1.936 13.568,-1.357 0.544,0.086 4.253,0.785 5.429,1.357 0.606,0.295 0.856,2.489 1.356,2.714 1.678,0.757 3.953,-0.888 4.069,1.357 0.15,2.849 5.279,-0.044 5.429,4.069 6.047,-1.597 10.06,2.188 14.928,2.714 4.648,0.505 8.938,-0.365 14.927,0 2.799,1.455 1.918,-2.306 2.714,-2.714 1.995,-1.022 11.895,-0.607 17.642,0 3.01,0.319 6.014,2.282 9.498,2.714 3.613,0.448 7.23,-0.544 9.5,0 0.294,0.07 0.155,1.294 1.355,1.357 1.131,0.061 3.014,-0.378 4.07,0 2.584,0.921 1.603,1.757 5.428,2.714 2.037,0.509 1.489,2.738 5.429,2.714 3.55,-3.679 2.013,-3.081 0,-6.785 -0.688,-1.265 -7.166,-3.358 -2.714,-5.428 5.5,0.008 12.05,-0.604 16.282,1.357 0.534,0.248 0.159,1.058 1.357,1.355 1.321,0.33 18.123,-2.229 20.354,0 0.332,0.333 -0.392,2.515 0,2.714 0.983,0.506 2.978,-0.231 4.07,0 6.522,1.394 13.623,0.371 20.354,1.357 2.767,0.405 3.887,2.188 6.787,2.714 3.063,0.558 6.306,-0.43 9.497,0 0.098,4.487 5.416,2.309 8.143,4.071 0.753,0.485 -0.213,1.273 1.355,1.355 0.229,0.014 6.274,0.572 8.143,1.357 0.64,0.268 0.847,2.482 1.355,2.714 2.729,1.229 13.917,-0.368 17.642,1.357 0.534,0.248 0.157,1.058 1.356,1.355 2.188,0.547 8.046,-0.396 12.213,0 -1.416,3.729 4.077,1.064 5.429,2.714 1.003,1.227 2.55,2.616 5.429,4.071 1.605,0.813 2.666,0.578 4.068,1.357 0.717,0.396 -0.179,1.274 1.357,1.355 2.242,0.118 3.813,2.53 6.785,2.714 1.346,-0.726 1.084,-2.188 2.714,-2.714 1.204,-0.39 2.898,0.469 4.07,0 2.265,-0.907 4.053,-4.079 6.784,-2.714 1.593,2.464 4.365,1.545 6.785,2.714 1.312,0.633 2.188,4.688 5.429,2.714 0.594,3.623 4.48,4.766 6.782,6.785 0.44,0.386 -0.448,2.346 0,2.714 0.273,0.225 1.082,-0.219 1.357,0 1.304,1.037 2.54,3.043 6.785,2.714 -0.018,0.934 -0.018,1.837 -0.018,2.742 z M 233.398,274.107 c -2.812,0.809 -8.915,-1.678 -9.499,1.357 2.811,-0.808 8.914,1.678 9.499,-1.357 z"
       inkscape:connector-curvature="0" /><path
       id="path3040"
       d="m 1097.783,753.115 c -0.771,0.274 -1.733,-2.051 -1.354,-2.714 0.237,-0.416 2.398,0.385 2.714,0 0.15,-0.184 0.272,-3.799 1.357,-2.714 2.092,2.093 -2.773,3.219 -2.717,5.428 z"
       inkscape:connector-curvature="0" /><path
       id="path3044"
       d="m 944.447,778.897 c -3.594,-1.134 -1.66,2.601 -2.714,4.071 -2.532,3.541 -5.521,3.084 -6.784,8.142 -0.215,0.86 -5.263,5.76 -2.714,10.855 0.235,0.473 2.603,1.01 2.714,1.355 0.682,2.098 -1.164,7.005 1.356,8.144 2.383,1.073 2.028,-0.026 2.714,2.714 0.563,2.246 5.546,4.205 5.428,8.142 -3.829,0.693 -5.763,3.284 -9.498,4.071 0.498,2.309 -1.06,2.561 -2.714,2.714 0,3.167 0,6.333 0,9.499 -4.287,-0.669 -0.504,6.734 -5.429,5.428 0.229,3.53 -0.498,3.354 -1.356,6.785 -0.342,1.363 -1.057,0.681 -1.355,1.356 -0.491,1.1 -0.653,2.665 -1.356,4.069 -0.484,0.973 -2.506,2.153 -2.714,2.714 -0.733,1.982 0.763,4.813 0,6.784 -0.233,0.607 -2.337,-0.054 -2.713,1.357 -0.162,0.604 0.378,2.246 0,2.714 -1.959,2.414 -7.28,0.979 -6.786,5.428 -5.65,-1.586 -9.487,-4.985 -14.927,-6.784 -5.07,-1.449 -3.868,3.369 -8.144,2.715 -4.691,1.072 -5.729,-1.51 -8.142,-2.715 -3.978,-0.266 -7.022,0.364 -9.499,0 -3.805,-0.56 -5.751,-4.236 -10.855,-2.715 -0.375,-1.207 0.47,-2.899 0,-4.068 -0.55,-1.379 -2.263,-0.483 -2.714,-1.357 -0.556,-1.077 0.521,-2.974 0,-4.07 -0.243,-0.512 -2.579,-0.969 -2.713,-1.355 -0.714,-2.047 1.474,-2.443 1.355,-4.07 -0.123,-1.71 -2.305,-2.271 -2.714,-4.071 -0.26,-1.129 0.806,-6.126 0,-6.784 -2.016,-1.647 -3.705,-3.511 -2.716,-9.497 -0.335,-1.476 -2.696,-0.923 -2.714,-2.716 0.555,-1.53 -0.724,-3.979 0,-5.429 0.322,-0.644 2.446,-0.817 2.714,-1.354 0.35,-0.698 -0.188,-1.949 0,-2.716 0.378,-1.507 3.503,-1.308 2.716,-4.069 5.178,-0.201 6.532,3.417 10.854,4.069 3.548,0.164 1.836,-3.639 2.714,-5.428 0.504,-1.021 4.116,-1.039 2.715,-5.428 2.31,0.498 2.562,-1.062 2.716,-2.714 2.354,1.047 3.278,-0.99 4.068,-1.357 1.17,-0.542 2.563,-0.651 4.071,-1.355 1.841,-0.855 3.278,-3.658 6.784,-2.714 1.847,-4.396 3.238,-7.486 5.429,-12.212 0.247,-0.534 1.057,-0.159 1.354,-1.357 0.214,-0.852 -0.161,-1.85 0,-2.714 3.184,2.188 4.01,-2.208 5.43,-2.714 2.963,-1.057 5.443,0.389 8.142,-1.357 0.753,-0.487 -0.212,-1.272 1.357,-1.354 2.928,-0.154 3.509,-2.041 5.428,-4.071 1.091,-1.154 1.622,-2.912 4.072,-2.714 -1.006,-5.979 4.392,-5.561 5.427,-9.498 8.469,-1.231 10.104,4.37 13.569,8.142 3.142,2.733 7.254,4.498 8.144,9.489 z"
       inkscape:connector-curvature="0" /></g><g
     inkscape:groupmode="layer"
     id="layer1"
     inkscape:label="Lag"
     transform="translate(-1.2066526,-867.58744)" /></svg>